<svg xmlns="http://www.w3.org/2000/svg" x="0px" y="0px"
width="50" height="50"
viewBox="0 0 172 172"
style=" fill:#000000;"><g fill="none" fill-rule="nonzero" stroke="none" stroke-width="1" stroke-linecap="butt" stroke-linejoin="miter" stroke-miterlimit="10" stroke-dasharray="" stroke-dashoffset="0" font-family="none" font-weight="none" font-size="none" text-anchor="none" style="mix-blend-mode: normal"><path d="M0,172v-172h172v172z" fill="none"></path><g fill="#5664d2"><path d="M86,6.88c-43.65603,0 -79.12,35.46397 -79.12,79.12c0,43.65603 35.46397,79.12 79.12,79.12c43.65603,0 79.12,-35.46397 79.12,-79.12c0,-43.65603 -35.46397,-79.12 -79.12,-79.12zM86,13.76c39.93779,0 72.24,32.30221 72.24,72.24c0,39.93779 -32.30221,72.24 -72.24,72.24c-39.93779,0 -72.24,-32.30221 -72.24,-72.24c0,-39.93779 32.30221,-72.24 72.24,-72.24zM86,24.08c-34.1572,0 -61.92,27.7628 -61.92,61.92c0,34.1572 27.7628,61.92 61.92,61.92c12.02355,0 23.27427,-3.43507 32.78078,-9.37937c1.61228,-1.00559 2.10411,-3.1278 1.09852,-4.74008c-1.00559,-1.61228 -3.1278,-2.10411 -4.74008,-1.09852c-8.45029,5.28386 -18.42436,8.33797 -29.13922,8.33797c-30.43912,0 -55.04,-24.60088 -55.04,-55.04c0,-30.43912 24.60088,-55.04 55.04,-55.04c30.43912,0 55.04,24.60088 55.04,55.04c0,18.72889 -15.59467,30.96 -30.96,30.96c-5.70467,0 -7.56934,-2.24439 -8.72765,-5.61687c-1.11683,-3.25168 -0.72436,-7.76869 0.27547,-10.5686l18.51015,-44.41094c0.46753,-1.07589 0.35462,-2.31585 -0.29954,-3.2896c-0.65416,-0.97375 -1.75939,-1.54708 -2.93218,-1.52102c-1.38135,0.02838 -2.61171,0.88037 -3.12422,2.16344l-2.86219,6.87328c-1.66926,-3.19013 -3.85632,-5.78621 -6.53063,-7.7064c-4.82161,-3.462 -10.84634,-4.72328 -17.40156,-4.72328c-7.92989,0 -17.27475,4.76271 -25.0475,13.24937c-7.77275,8.48667 -13.78015,20.94225 -13.78015,36.55c0,6.92796 2.08185,13.36292 6.18797,18.14063c4.10612,4.77771 10.28608,7.74 17.5964,7.74c8.38841,0 14.64457,-3.00057 19.04094,-7.04797c1.38396,-1.2741 2.5503,-2.64104 3.62812,-4.03125c0.08024,0.27038 0.13612,0.54419 0.22844,0.81297c1.87491,5.45886 7.18279,10.26625 15.23813,10.26625c19.03467,0 37.84,-15.28889 37.84,-37.84c0,-34.1572 -27.7628,-61.92 -61.92,-61.92zM86.98765,55.04c5.67054,0 10.14528,1.09646 13.39047,3.42656c3.12877,2.24651 5.39657,5.76347 6.59109,11.60328l-11.32781,27.18406l-0.00672,0.01344c-0.126,0.20794 -0.2296,0.42865 -0.30906,0.65844c-0.0368,0.09387 -0.05826,0.20711 -0.09406,0.30235l-0.79281,1.90812c-0.10523,0.1404 -0.19957,0.28864 -0.28219,0.44344c-2.14292,3.91666 -4.48802,8.07215 -7.82735,11.14641c-3.33933,3.07426 -7.55124,5.2339 -14.38485,5.2339c-5.53119,0 -9.52035,-2.01877 -12.37594,-5.3414c-2.85558,-3.32263 -4.52844,-8.1103 -4.52844,-13.65922c0,-13.85241 5.2673,-24.57189 11.97953,-31.90062c6.71223,-7.32873 15.05649,-11.01875 19.96812,-11.01875z"></path></g></g></svg>
