<svg xmlns="http://www.w3.org/2000/svg" x="0px" y="0px"
width="24" height="24"
viewBox="0 0 172 172"
style=" fill:#000000;"><g fill="none" fill-rule="nonzero" stroke="none" stroke-width="1" stroke-linecap="butt" stroke-linejoin="miter" stroke-miterlimit="10" stroke-dasharray="" stroke-dashoffset="0" font-family="none" font-weight="none" font-size="none" text-anchor="none" style="mix-blend-mode: normal"><path d="M0,172v-172h172v172z" fill="none"></path><g fill="#8494bf"><path d="M100.33333,38.28288c-1.83377,0 -3.66956,0.71252 -5.06706,2.11361l-0.61589,0.61588c-2.80217,2.80217 -2.80217,7.33912 0,10.13412l27.68685,27.68685h-93.67057c-3.956,0 -7.16667,3.21067 -7.16667,7.16667c0,3.956 3.21067,7.16667 7.16667,7.16667h93.67057l-27.68685,27.68685c-2.80217,2.80217 -2.80217,7.33912 0,10.13412l0.61589,0.61588c2.80217,2.80217 7.33911,2.80217 10.13411,0l40.53646,-40.53646c2.80217,-2.80217 2.80217,-7.33911 0,-10.13411l-40.53646,-40.53646c-1.40108,-1.40108 -3.23328,-2.11361 -5.06706,-2.11361z"></path></g></g></svg>
