<svg xmlns="http://www.w3.org/2000/svg" x="0px" y="0px"
width="30" height="30"
viewBox="0 0 172 172"
style=" fill:#000000;"><g fill="none" fill-rule="nonzero" stroke="none" stroke-width="1" stroke-linecap="butt" stroke-linejoin="miter" stroke-miterlimit="10" stroke-dasharray="" stroke-dashoffset="0" font-family="none" font-weight="none" font-size="none" text-anchor="none" style="mix-blend-mode: normal"><path d="M0,172v-172h172v172z" fill="none"></path><g><path d="M1.075,24.725h169.85v118.25h-169.85z" fill="#f78f8f"></path><path d="M169.85,25.8v116.1h-167.7v-116.1h167.7M172,23.65h-172v120.4h172v-120.4z" fill="#c74343"></path><path d="M53.75,36.55h116.1v8.6h-116.1zM53.75,58.05h116.1v8.6h-116.1zM2.14785,101.05h167.7v8.6h-167.7zM2.1586,79.55h167.7v8.6h-167.7zM2.1586,122.55h167.7v8.6h-167.7z" fill="#ffffff"></path><path d="M1.075,24.725h83.85v62.35h-83.85z" fill="#8bb7f0"></path><path d="M83.85,25.8v60.2h-81.7v-60.2h81.7M86,23.65h-86v64.5h86v-64.5z" fill="#4e7ab5"></path><path d="M7.525,25.74625l0.9976,2.1242l2.2274,0.3397l-1.6125,1.65335l0.38055,2.33275l-1.99305,-1.1008l-1.99305,1.1008l0.38055,-2.33275l-1.6125,-1.65335l2.2274,-0.3397zM39.775,25.74625l0.9976,2.1242l2.2274,0.3397l-1.6125,1.65335l0.38055,2.33275l-1.99305,-1.1008l-1.99305,1.1008l0.38055,-2.33275l-1.6125,-1.65335l2.2274,-0.3397zM18.275,25.74625l0.9976,2.1242l2.2274,0.3397l-1.6125,1.65335l0.38055,2.33275l-1.99305,-1.1008l-1.99305,1.1008l0.38055,-2.33275l-1.6125,-1.65335l2.2274,-0.3397zM50.525,25.74625l0.9976,2.1242l2.2274,0.3397l-1.6125,1.65335l0.38055,2.33275l-1.99305,-1.1008l-1.99305,1.1008l0.38055,-2.33275l-1.6125,-1.65335l2.2274,-0.3397zM29.1024,25.7742l0.9976,2.12205l2.2274,0.3397l-1.6125,1.65335l0.3827,2.3349l-1.9952,-1.10295l-1.99305,1.10295l0.38055,-2.3349l-1.6125,-1.65335l2.22955,-0.3397zM13.975,34.34625l0.9976,2.1242l2.2274,0.3397l-1.6125,1.65335l0.38055,2.33275l-1.99305,-1.1008l-1.99305,1.1008l0.38055,-2.33275l-1.6125,-1.65335l2.2274,-0.3397zM24.725,34.34625l0.9976,2.1242l2.2274,0.3397l-1.6125,1.65335l0.38055,2.33275l-1.99305,-1.1008l-1.99305,1.1008l0.38055,-2.33275l-1.6125,-1.65335l2.2274,-0.3397zM72.1024,25.7742l0.9976,2.12205l2.2274,0.3397l-1.6125,1.65335l0.3827,2.3349l-1.9952,-1.10295l-1.99305,1.10295l0.38055,-2.3349l-1.6125,-1.65335l2.22955,-0.3397zM56.975,34.34625l0.9976,2.1242l2.2274,0.3397l-1.6125,1.65335l0.38055,2.33275l-1.99305,-1.1008l-1.99305,1.1008l0.38055,-2.33275l-1.6125,-1.65335l2.2274,-0.3397zM67.725,34.34625l0.9976,2.1242l2.2274,0.3397l-1.6125,1.65335l0.38055,2.33275l-1.99305,-1.1008l-1.99305,1.1008l0.38055,-2.33275l-1.6125,-1.65335l2.2274,-0.3397zM78.475,34.34625l0.9976,2.1242l2.2274,0.3397l-1.6125,1.65335l0.38055,2.33275l-1.99305,-1.1008l-1.99305,1.1008l0.38055,-2.33275l-1.6125,-1.65335l2.2274,-0.3397zM7.525,42.94625l0.9976,2.1242l2.2274,0.3397l-1.6125,1.65335l0.38055,2.33275l-1.99305,-1.1008l-1.99305,1.1008l0.38055,-2.33275l-1.6125,-1.65335l2.2274,-0.3397zM18.275,42.94625l0.9976,2.1242l2.2274,0.3397l-1.6125,1.65335l0.38055,2.33275l-1.99305,-1.1008l-1.99305,1.1008l0.38055,-2.33275l-1.6125,-1.65335l2.2274,-0.3397zM29.025,42.94625l0.9976,2.1242l2.2274,0.3397l-1.6125,1.65335l0.38055,2.33275l-1.99305,-1.1008l-1.99305,1.1008l0.38055,-2.33275l-1.6125,-1.65335l2.2274,-0.3397zM39.6976,42.9742l0.99545,2.12205l2.22955,0.3397l-1.6125,1.65335l0.38055,2.3349l-1.99305,-1.10295l-1.9952,1.10295l0.3827,-2.3349l-1.6125,-1.65335l2.2274,-0.3397zM50.525,42.94625l0.9976,2.1242l2.2274,0.3397l-1.6125,1.65335l0.38055,2.33275l-1.99305,-1.1008l-1.99305,1.1008l0.38055,-2.33275l-1.6125,-1.65335l2.2274,-0.3397zM61.275,42.94625l0.9976,2.1242l2.2274,0.3397l-1.6125,1.65335l0.38055,2.33275l-1.99305,-1.1008l-1.99305,1.1008l0.38055,-2.33275l-1.6125,-1.65335l2.2274,-0.3397zM72.025,42.94625l0.9976,2.1242l2.2274,0.3397l-1.6125,1.65335l0.38055,2.33275l-1.99305,-1.1008l-1.99305,1.1008l0.38055,-2.33275l-1.6125,-1.65335l2.2274,-0.3397zM35.475,34.34625l0.9976,2.1242l2.2274,0.3397l-1.6125,1.65335l0.38055,2.33275l-1.99305,-1.1008l-1.99305,1.1008l0.38055,-2.33275l-1.6125,-1.65335l2.2274,-0.3397zM46.225,34.34625l0.9976,2.1242l2.2274,0.3397l-1.6125,1.65335l0.38055,2.33275l-1.99305,-1.1008l-1.99305,1.1008l0.38055,-2.33275l-1.6125,-1.65335l2.2274,-0.3397zM13.975,51.5742l0.9976,2.12205l2.2274,0.3397l-1.6125,1.65335l0.38055,2.3349l-1.99305,-1.10295l-1.99305,1.10295l0.38055,-2.3349l-1.6125,-1.65335l2.2274,-0.3397zM24.725,51.5742l0.9976,2.12205l2.2274,0.3397l-1.6125,1.65335l0.38055,2.3349l-1.99305,-1.10295l-1.99305,1.10295l0.38055,-2.3349l-1.6125,-1.65335l2.2274,-0.3397zM56.975,51.5742l0.9976,2.12205l2.2274,0.3397l-1.6125,1.65335l0.38055,2.3349l-1.99305,-1.10295l-1.99305,1.10295l0.38055,-2.3349l-1.6125,-1.65335l2.2274,-0.3397zM67.725,51.5742l0.9976,2.12205l2.2274,0.3397l-1.6125,1.65335l0.38055,2.3349l-1.99305,-1.10295l-1.99305,1.10295l0.38055,-2.3349l-1.6125,-1.65335l2.2274,-0.3397zM78.475,51.5742l0.9976,2.12205l2.2274,0.3397l-1.6125,1.65335l0.38055,2.3349l-1.99305,-1.10295l-1.99305,1.10295l0.38055,-2.3349l-1.6125,-1.65335l2.2274,-0.3397zM7.525,60.1742l0.9976,2.12205l2.2274,0.3397l-1.6125,1.65335l0.38055,2.3349l-1.99305,-1.10295l-1.99305,1.10295l0.38055,-2.3349l-1.6125,-1.65335l2.2274,-0.3397zM18.275,60.1742l0.9976,2.12205l2.2274,0.3397l-1.6125,1.65335l0.38055,2.3349l-1.99305,-1.10295l-1.99305,1.10295l0.38055,-2.3349l-1.6125,-1.65335l2.2274,-0.3397zM29.025,60.1742l0.9976,2.12205l2.2274,0.3397l-1.6125,1.65335l0.38055,2.3349l-1.99305,-1.10295l-1.99305,1.10295l0.38055,-2.3349l-1.6125,-1.65335l2.2274,-0.3397zM39.6976,60.2l0.99545,2.1242l2.22955,0.3397l-1.6125,1.65335l0.38055,2.33275l-1.99305,-1.1008l-1.9952,1.1008l0.3827,-2.33275l-1.6125,-1.65335l2.2274,-0.3397zM50.525,60.1742l0.9976,2.12205l2.2274,0.3397l-1.6125,1.65335l0.38055,2.3349l-1.99305,-1.10295l-1.99305,1.10295l0.38055,-2.3349l-1.6125,-1.65335l2.2274,-0.3397zM61.275,60.1742l0.9976,2.12205l2.2274,0.3397l-1.6125,1.65335l0.38055,2.3349l-1.99305,-1.10295l-1.99305,1.10295l0.38055,-2.3349l-1.6125,-1.65335l2.2274,-0.3397zM72.025,60.1742l0.9976,2.12205l2.2274,0.3397l-1.6125,1.65335l0.38055,2.3349l-1.99305,-1.10295l-1.99305,1.10295l0.38055,-2.3349l-1.6125,-1.65335l2.2274,-0.3397zM35.475,51.5742l0.9976,2.12205l2.2274,0.3397l-1.6125,1.65335l0.38055,2.3349l-1.99305,-1.10295l-1.99305,1.10295l0.38055,-2.3349l-1.6125,-1.65335l2.2274,-0.3397zM46.225,51.5742l0.9976,2.12205l2.2274,0.3397l-1.6125,1.65335l0.38055,2.3349l-1.99305,-1.10295l-1.99305,1.10295l0.38055,-2.3349l-1.6125,-1.65335l2.2274,-0.3397zM14.0524,68.7742l0.9976,2.12205l2.2274,0.3397l-1.6125,1.65335l0.3827,2.3349l-1.9952,-1.10295l-1.99305,1.10295l0.38055,-2.3349l-1.6125,-1.65335l2.22955,-0.3397zM24.8024,68.7742l0.9976,2.12205l2.2274,0.3397l-1.6125,1.65335l0.3827,2.3349l-1.9952,-1.10295l-1.99305,1.10295l0.38055,-2.3349l-1.6125,-1.65335l2.22955,-0.3397zM57.0524,68.7742l0.9976,2.12205l2.2274,0.3397l-1.6125,1.65335l0.3827,2.3349l-1.9952,-1.10295l-1.99305,1.10295l0.38055,-2.3349l-1.6125,-1.65335l2.22955,-0.3397zM67.8024,68.7742l0.9976,2.12205l2.2274,0.3397l-1.6125,1.65335l0.3827,2.3349l-1.9952,-1.10295l-1.99305,1.10295l0.38055,-2.3349l-1.6125,-1.65335l2.22955,-0.3397zM78.5524,68.7742l0.9976,2.12205l2.2274,0.3397l-1.6125,1.65335l0.3827,2.3349l-1.9952,-1.10295l-1.99305,1.10295l0.38055,-2.3349l-1.6125,-1.65335l2.22955,-0.3397zM7.6024,77.3742l0.9976,2.12205l2.2274,0.3397l-1.6125,1.65335l0.3827,2.3349l-1.9952,-1.10295l-1.99305,1.10295l0.38055,-2.3349l-1.6125,-1.65335l2.22955,-0.3397zM18.3524,77.3742l0.9976,2.12205l2.2274,0.3397l-1.6125,1.65335l0.3827,2.3349l-1.9952,-1.10295l-1.99305,1.10295l0.38055,-2.3349l-1.6125,-1.65335l2.22955,-0.3397zM29.1024,77.3742l0.9976,2.12205l2.2274,0.3397l-1.6125,1.65335l0.3827,2.3349l-1.9952,-1.10295l-1.99305,1.10295l0.38055,-2.3349l-1.6125,-1.65335l2.22955,-0.3397zM39.775,77.4l0.9976,2.1242l2.2274,0.3397l-1.6125,1.65335l0.38055,2.33275l-1.99305,-1.1008l-1.99305,1.1008l0.38055,-2.33275l-1.6125,-1.65335l2.2274,-0.3397zM50.6024,77.3742l0.9976,2.12205l2.2274,0.3397l-1.6125,1.65335l0.3827,2.3349l-1.9952,-1.10295l-1.99305,1.10295l0.38055,-2.3349l-1.6125,-1.65335l2.22955,-0.3397zM61.3524,77.3742l0.9976,2.12205l2.2274,0.3397l-1.6125,1.65335l0.3827,2.3349l-1.9952,-1.10295l-1.99305,1.10295l0.38055,-2.3349l-1.6125,-1.65335l2.22955,-0.3397zM72.1024,77.3742l0.9976,2.12205l2.2274,0.3397l-1.6125,1.65335l0.3827,2.3349l-1.9952,-1.10295l-1.99305,1.10295l0.38055,-2.3349l-1.6125,-1.65335l2.22955,-0.3397zM35.5524,68.7742l0.9976,2.12205l2.2274,0.3397l-1.6125,1.65335l0.3827,2.3349l-1.9952,-1.10295l-1.99305,1.10295l0.38055,-2.3349l-1.6125,-1.65335l2.22955,-0.3397zM46.3024,68.7742l0.9976,2.12205l2.2274,0.3397l-1.6125,1.65335l0.3827,2.3349l-1.9952,-1.10295l-1.99305,1.10295l0.38055,-2.3349l-1.6125,-1.65335l2.22955,-0.3397zM61.275,25.74625l0.9976,2.1242l2.2274,0.3397l-1.6125,1.65335l0.38055,2.33275l-1.99305,-1.1008l-1.99305,1.1008l0.38055,-2.33275l-1.6125,-1.65335l2.2274,-0.3397z" fill="#ffffff"></path></g></g></svg>
