<svg version="1.1" xmlns="http://www.w3.org/2000/svg" xmlns:xlink="http://www.w3.org/1999/xlink" viewBox="0 0 60 60" xml:space="preserve" data-animoptions="{'duration':'1.6', 'repeat':'0', 'repeatDelay':'0.7'}" preserveAspectRatio="xMinYMin meet" style="left: 0px; top: 0.200012px;"><g class="lievo-setrotation"><g class="lievo-setsharp" style="transform-origin: 0px 0px 0px;" data-svg-origin="30.625 30" transform="matrix(1,0,0,1,-0.6250002980232194,-0.6250002980232194)"><g class="lievo-setflip"><g class="lievo-main">
		<g class="lievo-filledicon lievo-lineicon">
			<g style="opacity: 1;" data-svg-origin="51 23" transform="matrix(1,0,0,1,0,0)">
				<path fill="none" stroke="#8494a7" stroke-width="3.25px" stroke-linecap="square" stroke-miterlimit="10" d="M49,51H11c-1.1,0-2-0.9-2-2V23h42v26C51,50.1,50.1,51,49,51z" style=""></path>
				<path class="lievo-likestroke lievo-altstroke" fill="#8494a7" d="M22.17,41.67c0.52,0.33,1.73,0.85,3,0.85c2.35,0,3.08-1.5,3.06-2.62c-0.02-1.9-1.73-2.71-3.5-2.71h-1.02v-1.37h1.02c1.33,0,3.02-0.69,3.02-2.29c0-1.08-0.69-2.04-2.38-2.04c-1.08,0-2.12,0.48-2.71,0.9l-0.48-1.33C22.9,30.52,24.27,30,25.73,30c2.67,0,3.88,1.58,3.88,3.23c0,1.4-0.83,2.58-2.5,3.19v0.04c1.67,0.33,3.02,1.58,3.02,3.48c0,2.17-1.69,4.06-4.94,4.06c-1.52,0-2.85-0.48-3.52-0.92L22.17,41.67z" style="stroke-width: 0px;" stroke="none"></path>
				<path class="lievo-likestroke lievo-altstroke" fill="#8494a7" d="M36.17,31.77h-0.04l-2.43,1.31l-0.37-1.44L36.38,30H38v14h-1.83V31.77z" style="stroke-width: 0px;" stroke="none"></path>
			</g>
			<g opacity="0" style="opacity: 0;" data-svg-origin="9 23" transform="matrix(1,0,0,1,0,0)">
				<path class="lievo-donotdraw" fill="none" stroke="#8494a7" stroke-width="3.25px" stroke-linecap="square" stroke-miterlimit="10" d="M49,51H11c-1.1,0-2-0.9-2-2V23h42v26C51,50.1,50.1,51,49,51z" style=""></path>
				<path class="lievo-donotdraw lievo-likestroke lievo-altstroke" fill="#8494a7" d="M30.17,31.77h-0.04l-2.43,1.31l-0.37-1.44L30.38,30H32v14h-1.83V31.77z" style="stroke-width: 0px;" stroke="none"></path>
			</g>
			<g opacity="0" style="opacity: 0;" data-svg-origin="51 23" transform="matrix(1,0,0,1,0,0)">
				<path class="lievo-donotdraw" fill="none" stroke="#8494a7" stroke-width="3.25px" stroke-linecap="square" stroke-miterlimit="10" d="M49,51H11c-1.1,0-2-0.9-2-2V23h42v26C51,50.1,50.1,51,49,51z" style=""></path>
				<path class="lievo-donotdraw lievo-likestroke lievo-altstroke" fill="#8494a7" d="M25.61,44v-1.14l1.46-1.42c3.52-3.34,5.1-5.12,5.13-7.2c0-1.4-0.68-2.69-2.73-2.69c-1.25,0-2.29,0.63-2.92,1.16l-0.59-1.31c0.95-0.81,2.31-1.4,3.9-1.4c2.97,0,4.21,2.03,4.21,4c0,2.54-1.84,4.6-4.74,7.39l-1.1,1.02v0.04h6.18V44H25.61z" style="stroke-width: 0px;" stroke="none"></path>
			</g>
			<g opacity="0" style="opacity: 0;">
				<path class="lievo-donotdraw" fill="none" stroke="#8494a7" stroke-width="3.25px" stroke-linecap="square" stroke-miterlimit="10" d="M49,51H11c-1.1,0-2-0.9-2-2V23h42v26C51,50.1,50.1,51,49,51z" style=""></path>
				<path class="lievo-donotdraw lievo-likestroke lievo-altstroke" fill="#8494a7" d="M26.27,41.67c0.52,0.33,1.73,0.85,3,0.85c2.35,0,3.08-1.5,3.06-2.62c-0.02-1.9-1.73-2.71-3.5-2.71h-1.02v-1.37h1.02c1.33,0,3.02-0.69,3.02-2.29c0-1.08-0.69-2.04-2.37-2.04c-1.08,0-2.12,0.48-2.71,0.9l-0.48-1.33C27,30.52,28.38,30,29.83,30c2.67,0,3.88,1.58,3.88,3.23c0,1.4-0.83,2.58-2.5,3.19v0.04c1.67,0.33,3.02,1.58,3.02,3.48c0,2.17-1.69,4.06-4.94,4.06c-1.52,0-2.85-0.48-3.52-0.92L26.27,41.67z" style="stroke-width: 0px;" stroke="none"></path>
			</g>
			<g>
				<polyline fill="none" stroke="#8494a7" stroke-width="3.25px" stroke-linecap="square" stroke-miterlimit="10" points="19,13 19,9 15,9 15,13" style=""></polyline>
				<polyline fill="none" stroke="#8494a7" stroke-width="3.25px" stroke-linecap="square" stroke-miterlimit="10" points="45,13 45,9 41,9 41,13" style=""></polyline>
				<path fill="none" stroke="#8494a7" stroke-width="3.25px" stroke-linecap="square" stroke-miterlimit="10" d="M49,13h-4v4h-4v-4H19v4h-4v-4h-4c-1.1,0-2,0.9-2,2v8h42v-8C51,13.9,50.1,13,49,13z" style=""></path>
			</g>
		</g>


	<rect x="-19" y="-19" width="4" height="4" class="lievo-checkshift lievo-donotdraw lievo-nohoverstroke lievo-nohovercolor" style="stroke-width: 2px; stroke-linecap: butt; stroke-linejoin: round; opacity: 0;" fill="none" stroke="#8494a7" stroke-width="3.25px"></rect></g></g></g></g>

<desc>LivIcons Evolution</desc><defs></defs></svg>
