<svg xmlns="http://www.w3.org/2000/svg" x="0px" y="0px"
width="50" height="50"
viewBox="0 0 172 172"
style=" fill:#000000;"><g fill="none" fill-rule="nonzero" stroke="none" stroke-width="1" stroke-linecap="butt" stroke-linejoin="miter" stroke-miterlimit="10" stroke-dasharray="" stroke-dashoffset="0" font-family="none" font-weight="none" font-size="none" text-anchor="none" style="mix-blend-mode: normal"><path d="M0,172v-172h172v172z" fill="none"></path><g fill="#8494a7"><path d="M16.555,30.96c-1.63937,0.30906 -2.82187,1.76031 -2.795,3.44c0,5.6975 -4.6225,10.32 -10.32,10.32c-1.89469,0 -3.44,1.54531 -3.44,3.44v75.68c0,1.89469 1.54531,3.44 3.44,3.44c5.6975,0 10.32,4.6225 10.32,10.32c0,1.89469 1.54531,3.44 3.44,3.44h137.6c1.89469,0 3.44,-1.54531 3.44,-3.44c0,-5.6975 4.6225,-10.32 10.32,-10.32c1.89469,0 3.44,-1.54531 3.44,-3.44v-75.68c0,-1.89469 -1.54531,-3.44 -3.44,-3.44c-5.6975,0 -10.32,-4.6225 -10.32,-10.32c0,-1.89469 -1.54531,-3.44 -3.44,-3.44h-137.6c-0.1075,0 -0.215,0 -0.3225,0c-0.1075,0 -0.215,0 -0.3225,0zM19.8875,37.84h132.225c1.41094,6.59781 6.40969,11.59656 13.0075,13.0075v70.305c-6.59781,1.41094 -11.59656,6.40969 -13.0075,13.0075h-132.225c-1.41094,-6.59781 -6.40969,-11.59656 -13.0075,-13.0075v-70.305c6.59781,-1.41094 11.59656,-6.40969 13.0075,-13.0075zM34.4,68.8v6.88h103.2v-6.88zM34.4,96.32v6.88h103.2v-6.88z"></path></g></g></svg>
