<svg version="1.1" xmlns="http://www.w3.org/2000/svg" xmlns:xlink="http://www.w3.org/1999/xlink" viewBox="0 0 60 60" xml:space="preserve" data-animoptions="{'duration':'2', 'repeat':'0', 'repeatDelay':'0'}" preserveAspectRatio="xMinYMin meet" style="left: 0px; top: 0.199997px;"><g class="lievo-setrotation"><g class="lievo-setsharp" style="transform-origin: 0px 0px 0px;" data-svg-origin="30.625 30" transform="matrix(1,0,0,1,-0.6250002980232194,-0.6250002980232194)"><g class="lievo-setflip"><g class="lievo-main">


		<g class="lievo-lineicon">
			<path fill="none" stroke="#8494a7" stroke-width="3.25px" stroke-linecap="square" stroke-miterlimit="10" d="M23,37h-1h-1l-8,8v-8H9c-1.1,0-2-0.9-2-2V13c0-1.1,0.9-2,2-2h34c1.1,0,2,0.9,2,2v9v1" style="" data-original="M23,37h-1h-1l-8,8v-8H9c-1.1,0-2-0.9-2-2V13c0-1.1,0.9-2,2-2h34c1.1,0,2,0.9,2,2v9v1" data-svg-origin="13 45" transform="matrix(1,0,0,1,0,0)"></path>
			<path class="lievo-altstroke" fill="none" stroke="#8494a7" stroke-width="3.25px" stroke-linecap="square" stroke-miterlimit="10" d="M40,27h11c1.1,0,2,0.9,2,2v16c0,1.1-0.9,2-2,2h-2v4l-4-4H29c-1.1,0-2-0.9-2-2V29c0-1.1,0.9-2,2-2H40" style="" data-svg-origin="49 49" transform="matrix(1,0,0,1,0,0)"></path>
		</g>


	<rect x="-19" y="-19" width="4" height="4" class="lievo-checkshift lievo-donotdraw lievo-nohoverstroke lievo-nohovercolor" style="stroke-width: 2px; stroke-linecap: butt; stroke-linejoin: round; opacity: 0;" fill="none" stroke="#8494a7" stroke-width="3.25px"></rect></g></g></g></g>

<desc>LivIcons Evolution</desc><defs></defs></svg>
