<svg xmlns="http://www.w3.org/2000/svg" x="0px" y="0px"
width="50" height="50"
viewBox="0 0 172 172"
style=" fill:#000000;"><g fill="none" fill-rule="nonzero" stroke="none" stroke-width="1" stroke-linecap="butt" stroke-linejoin="miter" stroke-miterlimit="10" stroke-dasharray="" stroke-dashoffset="0" font-family="none" font-weight="none" font-size="none" text-anchor="none" style="mix-blend-mode: normal"><path d="M0,172v-172h172v172z" fill="none"></path><g fill="#8494a7"><path d="M61.92,6.88c-9.45855,0 -17.2,7.74145 -17.2,17.2c0,9.45855 7.74145,17.2 17.2,17.2c1.39648,0 2.73574,-0.21267 4.03797,-0.53078l2.87563,6.10063c-12.33538,7.14739 -20.6736,20.46032 -20.6736,35.71015c0,3.93642 0.59152,7.7322 1.62594,11.34125l-11.26734,3.48703c-3.06781,-4.76134 -8.38604,-7.94828 -14.4386,-7.94828c-9.45855,0 -17.2,7.74145 -17.2,17.2c0,9.45855 7.74145,17.2 17.2,17.2c9.45855,0 17.2,-7.74145 17.2,-17.2c0,-0.96285 -0.10123,-1.90096 -0.25531,-2.82187l11.22703,-3.46688c5.25495,10.93558 15.16415,19.19328 27.16391,22.20547l-1.03469,8.19688c-9.11733,0.39294 -16.46094,7.95695 -16.46094,17.1664c0,9.45855 7.74145,17.2 17.2,17.2c9.45855,0 17.2,-7.74145 17.2,-17.2c0,-7.32294 -4.66156,-13.56892 -11.1464,-16.03765l1.03469,-8.21031c1.07015,0.0836 2.14052,0.16797 3.23172,0.16797c11.52903,0 21.95742,-4.76644 29.455,-12.41625l13.85406,11.38156c-1.25268,2.38217 -2.02906,5.05023 -2.02906,7.91469c0,9.45855 7.74145,17.2 17.2,17.2c9.45855,0 17.2,-7.74145 17.2,-17.2c0,-9.45855 -7.74145,-17.2 -17.2,-17.2c-4.1124,0 -7.84911,1.52568 -10.81719,3.95735l-13.82047,-11.34797c4.67347,-6.68986 7.43765,-14.80994 7.43765,-23.56937c0,-10.14254 -3.69582,-19.43108 -9.78922,-26.6264l10.64922,-10.64922c2.72,1.80565 5.96962,2.87563 9.46,2.87563c9.45855,0 17.2,-7.74145 17.2,-17.2c0,-9.45855 -7.74145,-17.2 -17.2,-17.2c-9.45855,0 -17.2,7.74145 -17.2,17.2c0,3.49038 1.06997,6.74 2.87563,9.46l-10.64922,10.64922c-7.19533,-6.0934 -16.48386,-9.78922 -26.6264,-9.78922c-5.06176,0 -9.89261,0.96503 -14.37813,2.64047l-2.88906,-6.13422c4.18666,-3.14517 6.94719,-8.09862 6.94719,-13.70625c0,-9.45855 -7.74145,-17.2 -17.2,-17.2zM61.92,13.76c5.74032,0 10.32,4.57968 10.32,10.32c0,5.74032 -4.57968,10.32 -10.32,10.32c-5.74032,0 -10.32,-4.57968 -10.32,-10.32c0,-5.74032 4.57968,-10.32 10.32,-10.32zM141.04,20.64c5.74032,0 10.32,4.57968 10.32,10.32c0,5.74032 -4.57968,10.32 -10.32,10.32c-5.74032,0 -10.32,-4.57968 -10.32,-10.32c0,-5.74032 4.57968,-10.32 10.32,-10.32zM89.44,48.16c19.03934,0 34.4,15.36066 34.4,34.4c0,8.84747 -3.34655,16.8715 -8.80828,22.95797c-2.96458,-2.29189 -6.50363,-3.28908 -9.39953,-4.19922c-1.88287,-0.59176 -3.54803,-1.14086 -4.62922,-1.6864c-0.89292,-0.45056 -1.08204,-0.74029 -1.24297,-0.98766v-3.64828c0.08476,-0.12866 0.30905,-0.25322 0.3964,-0.38297c0.50394,-0.74829 0.94138,-1.56376 1.34375,-2.45234c0.56118,-1.2393 0.84994,-2.66255 1.16906,-4.05813c0.39719,-0.28101 0.96944,-0.2388 1.35047,-0.61812c1.20242,-1.19709 2.16663,-2.96426 2.56656,-5.17344v-0.02015l0.00672,-0.02688c0.229,-1.37954 0.13673,-2.6562 -0.20156,-3.80281c-0.08167,-0.27675 -0.50538,-0.51513 -0.60469,-0.79281c0.51836,-2.18727 0.87684,-4.44339 0.85328,-7.17562c-0.02114,-2.57874 -0.5433,-5.37418 -2.12313,-7.86094c-1.45748,-2.29419 -4.07782,-4.0539 -7.25625,-4.68297c-0.81449,-0.70375 -1.47081,-1.68199 -2.41203,-2.03578c-1.68926,-0.63496 -3.50258,-0.87344 -5.4086,-0.87344c-5.37762,0 -9.83907,1.53758 -12.8664,4.50156c-3.02734,2.96398 -4.36432,7.12606 -4.3336,11.43531c0.01514,1.98834 0.32295,4.35055 0.81297,6.75235c-0.08944,0.25769 -0.48866,0.47571 -0.56437,0.73235c-0.32394,1.09802 -0.3884,2.329 -0.19485,3.64156c0.2386,2.31608 1.25711,4.24249 2.52625,5.44219c0.42145,0.39839 0.98688,0.3408 1.40422,0.61812c0.31954,1.37347 0.60266,2.7765 1.15563,3.99766c0.40237,0.88858 0.83981,1.70405 1.34375,2.45234c0.08738,0.12976 0.31166,0.25432 0.3964,0.38297v3.64828c-0.16092,0.24737 -0.35005,0.5371 -1.24297,0.98766c-1.08119,0.54555 -2.74634,1.09464 -4.62922,1.6864c-2.89591,0.91014 -6.43495,1.90733 -9.39953,4.19922c-5.46173,-6.08647 -8.80828,-14.1105 -8.80828,-22.95797c0,-19.03934 15.36066,-34.4 34.4,-34.4zM89.44,61.92c1.27943,0 2.36141,0.19378 2.98985,0.43c0.62844,0.23622 0.67359,0.43373 0.59797,0.28219l0.81969,1.6461l1.8275,0.22844c1.7084,0.21314 2.39359,0.8082 3.03687,1.82078c0.64329,1.01258 1.03487,2.60131 1.04813,4.21937c0.0258,2.98723 -0.31896,5.60619 -0.65844,6.5575l-1.02797,2.86891l1.72672,0.86672c0.00256,0.10478 0.02564,0.13672 0.00672,0.26875c-0.17376,0.92546 -0.46674,1.28928 -0.62485,1.45125h-2.53969l-0.30235,3.09735c-0.08373,0.8414 -0.55539,2.44006 -1.10859,3.66172c-0.27661,0.61083 -0.57478,1.14744 -0.77938,1.45125c-0.05566,0.08265 -0.07956,0.08365 -0.12765,0.12094l-1.44453,0.72562v8.82844l0.26203,0.63828c0.97331,2.33594 2.90869,3.75711 4.75687,4.68969c1.84819,0.93257 3.78428,1.51223 5.66391,2.10297c2.35329,0.73961 4.46745,1.53657 6.1275,2.4725c-5.68047,4.14165 -12.66082,6.61125 -20.25031,6.61125c-7.5895,0 -14.56984,-2.4696 -20.25031,-6.61125c1.66005,-0.93593 3.77421,-1.73289 6.1275,-2.4725c1.87963,-0.59074 3.81572,-1.17039 5.66391,-2.10297c1.84819,-0.93257 3.78357,-2.35375 4.75687,-4.68969l0.26203,-0.63828v-8.82844l-1.44453,-0.72562c-0.04809,-0.03729 -0.072,-0.03829 -0.12765,-0.12094c-0.20461,-0.30382 -0.50278,-0.84042 -0.77938,-1.45125c-0.5532,-1.22166 -1.02485,-2.82032 -1.10859,-3.66172l-0.30235,-3.09735h-2.64047c-0.02319,-0.00928 -0.03683,0.00256 -0.05375,-0.01344c-0.13939,-0.13179 -0.36227,-0.33313 -0.43672,-1.15563l-0.01344,-0.12765l-0.02016,-0.12765c-0.02442,-0.14713 0.00362,-0.18039 0.00672,-0.29563l1.51172,-0.75922l-0.73234,-2.71438c-0.58005,-2.15264 -0.72287,-4.30325 -0.73906,-6.44328c-0.02088,-2.92852 0.77811,-5.00186 2.27094,-6.46344c1.49282,-1.46158 3.93572,-2.53969 8.04906,-2.53969zM24.08,96.32c5.74032,0 10.32,4.57968 10.32,10.32c0,5.74032 -4.57968,10.32 -10.32,10.32c-5.74032,0 -10.32,-4.57968 -10.32,-10.32c0,-5.74032 4.57968,-10.32 10.32,-10.32zM147.92,120.4c5.74032,0 10.32,4.57968 10.32,10.32c0,5.74032 -4.57968,10.32 -10.32,10.32c-5.74032,0 -10.32,-4.57968 -10.32,-10.32c0,-5.74032 4.57968,-10.32 10.32,-10.32zM79.12,137.6c5.74032,0 10.32,4.57968 10.32,10.32c0,5.74032 -4.57968,10.32 -10.32,10.32c-5.74032,0 -10.32,-4.57968 -10.32,-10.32c0,-5.74032 4.57968,-10.32 10.32,-10.32z"></path></g></g></svg>
