<svg version="1.1" xmlns="http://www.w3.org/2000/svg" xmlns:xlink="http://www.w3.org/1999/xlink" viewBox="0 0 60 60" xml:space="preserve" data-animoptions="{'duration':'1.4', 'repeat':'0', 'repeatDelay':'0.5'}" preserveAspectRatio="xMinYMin meet" style="left: 0px; top: 0.200012px;"><g class="lievo-setrotation"><g class="lievo-setsharp" style="transform-origin: 0px 0px 0px;" data-svg-origin="30.625 30" transform="matrix(1,0,0,1,-0.6250002980232194,-0.6250002980232194)"><g class="lievo-setflip"><g class="lievo-main">
		<g class="lievo-common">
			<circle class="lievo-donotdraw lievo-likestroke lievo-altstroke" fill="#8494a7" cx="30" cy="30" r="18" opacity="0" style="stroke-width: 0px; transform-origin: 0px 0px 0px; opacity: 0;" stroke="none" data-svg-origin="30 30" transform="matrix(1,0,0,1,0,0)"></circle>
		</g>



		<g class="lievo-lineicon">
			<g style="opacity: 1;">
				<path fill="none" d="M31,9h12l8,6v34c0,1.1-0.9,2-2,2H11c-1.1,0-2-0.9-2-2V11c0-1.1,0.9-2,2-2H31" stroke="#8494a7" stroke-width="0px" style=""></path>
				<polyline class="lievo-altstroke" fill="none" stroke="#8494a7" stroke-width="3.25px" stroke-miterlimit="10" points="17,51 17,35 43,35 43,51" style=""></polyline>
			</g>

			<g style="opacity: 1;" data-svg-origin="21 9" transform="matrix(1,0,0,1,0,0)">
				<polyline fill="none" stroke="#8494a7" stroke-width="3.25px" stroke-miterlimit="10" points="21,9 21,23 41,23 41,9" style=""></polyline>
				<rect class="lievo-likestroke" fill="#8494a7" stroke="#8494a7" stroke-width="0px" x="34" y="12" width="4" height="8" style=""></rect>
			</g>

			<path fill="none" stroke="#8494a7" stroke-width="3.25px" stroke-linecap="square" stroke-miterlimit="10" d="M31,9h12l8,6v34c0,1.1-0.9,2-2,2H11c-1.1,0-2-0.9-2-2V11c0-1.1,0.9-2,2-2H31" style=""></path>
		</g>


	<rect x="-19" y="-19" width="4" height="4" class="lievo-checkshift lievo-donotdraw lievo-nohoverstroke lievo-nohovercolor" style="stroke-width: 2px; stroke-linecap: butt; stroke-linejoin: round; opacity: 0;" fill="none" stroke="#8494a7" stroke-width="3.25px"></rect></g></g></g></g>

<desc>LivIcons Evolution</desc><defs></defs></svg>
