<svg version="1.1" xmlns="http://www.w3.org/2000/svg" xmlns:xlink="http://www.w3.org/1999/xlink" viewBox="0 0 60 60" xml:space="preserve" data-animoptions="{'duration':'1.6', 'repeat':'0', 'repeatDelay':'0.7'}" preserveAspectRatio="xMinYMin meet" style="left: 0px; top: 0.200012px;"><g class="lievo-setrotation"><g class="lievo-setsharp" style="transform-origin: 0px 0px 0px;" data-svg-origin="30.625 30" transform="matrix(1,0,0,1,-0.6250002980232194,-0.6250002980232194)"><g class="lievo-setflip"><g class="lievo-main">


		<g class="lievo-lineicon">
			<defs>
				<clipPath id="livicon_notebook_6">
					<path class="lievo-donotdraw lievo-nohovercolor lievo-nohoverstroke" fill="none" stroke="none" d="M49,9v42H17V9H49z M74-104h-178V74H74V-104z" style="opacity: 1;" data-svg-origin="17 51" transform="matrix(1,0,0,1,0,0)"></path>
				</clipPath>
			</defs>

			<g>
				<polyline clip-path="url(#livicon_notebook_6)" class="lievo-donotdraw" fill="none" stroke="#8494a7" stroke-width="3.25px" stroke-linecap="square" stroke-miterlimit="10" points="33,9 49,9 49,51 17,51 17,9 33,9" opacity="0" style="opacity: 0;"></polyline>
				<g style="opacity: 1;" data-svg-origin="17 51" transform="matrix(1,0,0,1,0,0)">
					<polyline fill="none" stroke="#8494a7" stroke-width="3.25px" stroke-linecap="square" stroke-miterlimit="10" points="33,9 49,9 49,51 17,51 17,9 33,9" style=""></polyline>
					<g>
						<line class="lievo-solidbg lievo-altstroke" fill="none" stroke="#8494a7" stroke-width="3.25px" stroke-linecap="square" stroke-miterlimit="10" x1="25" y1="17" x2="43" y2="17" style="opacity: 1;" data-svg-origin="25 17" transform="matrix(1,0,0,1,0,0)"></line>
						<line class="lievo-solidbg lievo-altstroke" fill="none" stroke="#8494a7" stroke-width="3.25px" stroke-linecap="square" stroke-miterlimit="10" x1="25" y1="23" x2="43" y2="23" style="opacity: 1;" data-svg-origin="25 23" transform="matrix(1,0,0,1,0,0)"></line>
						<line class="lievo-solidbg lievo-altstroke" fill="none" stroke="#8494a7" stroke-width="3.25px" stroke-linecap="square" stroke-miterlimit="10" x1="25" y1="29" x2="43" y2="29" style="opacity: 1;" data-svg-origin="25 29" transform="matrix(1,0,0,1,0,0)"></line>
						<line class="lievo-solidbg lievo-altstroke" fill="none" stroke="#8494a7" stroke-width="3.25px" stroke-linecap="square" stroke-miterlimit="10" x1="25" y1="35" x2="43" y2="35" style="opacity: 1;" data-svg-origin="25 35" transform="matrix(1,0,0,1,0,0)"></line>
						<line class="lievo-solidbg lievo-altstroke" fill="none" stroke="#8494a7" stroke-width="3.25px" stroke-linecap="square" stroke-miterlimit="10" x1="25" y1="41" x2="37" y2="41" style="opacity: 1;" data-svg-origin="25 41" transform="matrix(1,0,0,1,0,0)"></line>
					</g>
				</g>
				<g>
					<line fill="none" stroke="#8494a7" stroke-width="3.25px" stroke-linecap="round" stroke-linejoin="round" stroke-miterlimit="10" x1="15" y1="15" x2="19" y2="15" style=""></line>
					<line fill="none" stroke="#8494a7" stroke-width="3.25px" stroke-linecap="round" stroke-linejoin="round" stroke-miterlimit="10" x1="15" y1="21" x2="19" y2="21" style=""></line>
					<line fill="none" stroke="#8494a7" stroke-width="3.25px" stroke-linecap="round" stroke-linejoin="round" stroke-miterlimit="10" x1="15" y1="27" x2="19" y2="27" style=""></line>
					<line fill="none" stroke="#8494a7" stroke-width="3.25px" stroke-linecap="round" stroke-linejoin="round" stroke-miterlimit="10" x1="15" y1="33" x2="19" y2="33" style=""></line>
					<line fill="none" stroke="#8494a7" stroke-width="3.25px" stroke-linecap="round" stroke-linejoin="round" stroke-miterlimit="10" x1="15" y1="39" x2="19" y2="39" style=""></line>
					<line fill="none" stroke="#8494a7" stroke-width="3.25px" stroke-linecap="round" stroke-linejoin="round" stroke-miterlimit="10" x1="15" y1="45" x2="19" y2="45" style=""></line>
				</g>
			</g>
		</g>
	<rect x="-19" y="-19" width="4" height="4" class="lievo-checkshift lievo-donotdraw lievo-nohoverstroke lievo-nohovercolor" style="stroke-width: 2px; stroke-linecap: butt; stroke-linejoin: round; opacity: 0;" fill="none" stroke="#8494a7" stroke-width="3.25px"></rect></g></g></g></g>

<desc>LivIcons Evolution</desc></svg>
