<svg version="1.1" xmlns="http://www.w3.org/2000/svg" xmlns:xlink="http://www.w3.org/1999/xlink" viewBox="0 0 60 60" xml:space="preserve" data-animoptions="{'duration':'1.2', 'repeat':'0', 'repeatDelay':'0.7'}" preserveAspectRatio="xMinYMin meet" style="left: 0px; top: 0.200012px;"><g class="lievo-setrotation"><g class="lievo-setsharp" style="transform-origin: 0px 0px 0px;" data-svg-origin="30.625 30" transform="matrix(1,0,0,1,-0.6250002980232194,-0.6250002980232194)"><g class="lievo-setflip"><g class="lievo-main">
		<g class="lievo-common">
			<g>
				<polyline class="lievo-altstroke" fill="none" stroke="#8494a7" stroke-width="3.25px" stroke-linecap="square" stroke-miterlimit="10" points="17,11 25,11 25,27 9,27 9,11 17,11" style="" data-svg-origin="9 11" transform="matrix(1,0,0,1,0,0)"></polyline>
				<g>
					<line fill="none" stroke="#8494a7" stroke-width="3.25px" stroke-linecap="square" stroke-miterlimit="10" x1="31" y1="13" x2="51" y2="13" style="opacity: 1;" data-svg-origin="31 13" transform="matrix(1,0,0,1,0,0)"></line>
					<line fill="none" stroke="#8494a7" stroke-width="3.25px" stroke-linecap="square" stroke-miterlimit="10" x1="31" y1="17" x2="51" y2="17" style="opacity: 1;" data-svg-origin="31 17" transform="matrix(1,0,0,1,0,0)"></line>
					<line fill="none" stroke="#8494a7" stroke-width="3.25px" stroke-linecap="square" stroke-miterlimit="10" x1="31" y1="21" x2="51" y2="21" style="opacity: 1;" data-svg-origin="31 21" transform="matrix(1,0,0,1,0,0)"></line>
					<line fill="none" stroke="#8494a7" stroke-width="3.25px" stroke-linecap="square" stroke-miterlimit="10" x1="31" y1="25" x2="51" y2="25" style="opacity: 1;" data-svg-origin="31 25" transform="matrix(1,0,0,1,0,0)"></line>
				</g>
			</g>
			<g>
				<polyline class="lievo-altstroke" fill="none" stroke="#8494a7" stroke-width="3.25px" stroke-linecap="square" stroke-miterlimit="10" points="17,33 25,33 25,49 9,49 9,33 17,33" style="" data-svg-origin="25 33" transform="matrix(1,0,0,1,0,0)"></polyline>
				<g>
					<line fill="none" stroke="#8494a7" stroke-width="3.25px" stroke-linecap="square" stroke-miterlimit="10" x1="31" y1="35" x2="51" y2="35" style="opacity: 1;" data-svg-origin="31 35" transform="matrix(1,0,0,1,0,0)"></line>
					<line fill="none" stroke="#8494a7" stroke-width="3.25px" stroke-linecap="square" stroke-miterlimit="10" x1="31" y1="39" x2="51" y2="39" style="opacity: 1;" data-svg-origin="31 39" transform="matrix(1,0,0,1,0,0)"></line>
					<line fill="none" stroke="#8494a7" stroke-width="3.25px" stroke-linecap="square" stroke-miterlimit="10" x1="31" y1="43" x2="51" y2="43" style="opacity: 1;" data-svg-origin="31 43" transform="matrix(1,0,0,1,0,0)"></line>
					<line fill="none" stroke="#8494a7" stroke-width="3.25px" stroke-linecap="square" stroke-miterlimit="10" x1="31" y1="47" x2="51" y2="47" style="opacity: 1;" data-svg-origin="31 47" transform="matrix(1,0,0,1,0,0)"></line>
				</g>
			</g>
		</g>
	<rect x="-19" y="-19" width="4" height="4" class="lievo-checkshift lievo-donotdraw lievo-nohoverstroke lievo-nohovercolor" style="stroke-width: 2px; stroke-linecap: butt; stroke-linejoin: round; opacity: 0;" fill="none" stroke="#8494a7" stroke-width="3.25px"></rect></g></g></g></g>

<desc>LivIcons Evolution</desc><defs></defs></svg>
