<svg xmlns="http://www.w3.org/2000/svg" x="0px" y="0px"
width="100" height="100"
viewBox="0 0 172 172"
style=" fill:#000000;"><g fill="none" fill-rule="nonzero" stroke="none" stroke-width="1" stroke-linecap="butt" stroke-linejoin="miter" stroke-miterlimit="10" stroke-dasharray="" stroke-dashoffset="0" font-family="none" font-weight="none" font-size="none" text-anchor="none" style="mix-blend-mode: normal"><path d="M0,172v-172h172v172z" fill="none"></path><g fill="#8494a7"><path d="M85.14,25.8c-32.75222,0 -59.34,26.5878 -59.34,59.34c0,32.7522 26.58778,59.34 59.34,59.34c32.75222,0 59.34,-26.5878 59.34,-59.34c0,-32.7522 -26.58778,-59.34 -59.34,-59.34zM85.14,29.24c1.42039,0 3.03007,1.27289 4.60906,4.02789c1.57899,2.755 3.04993,6.85207 4.2832,11.93922c0.47858,1.97414 0.9091,4.13824 1.31352,6.39289h-20.41156c0.40441,-2.25465 0.83493,-4.41876 1.31352,-6.39289c1.23327,-5.08714 2.70421,-9.18422 4.2832,-11.93922c1.57899,-2.755 3.18867,-4.02789 4.60906,-4.02789zM81.26664,29.38781c-0.79329,0.7996 -1.53517,1.81924 -2.22727,3.0268c-1.71341,2.98953 -3.20775,7.20154 -4.46461,12.38602c-0.50945,2.10145 -0.96597,4.39971 -1.39078,6.79938h-32.77742c9.46827,-12.6133 24.15162,-21.06959 40.86008,-22.21219zM89.17797,29.5457c8.98993,1.34821 17.09488,7.14744 23.23008,15.95031c7.04152,10.10328 11.43195,24.13245 11.43195,39.64398c0,11.8464 -2.59031,22.79143 -6.93711,31.82h-42.28109c-1.46021,-8.82354 -2.32959,-19.47883 -2.37172,-30.96h22.34992c0.31015,0.00439 0.59863,-0.15856 0.75498,-0.42645c0.15635,-0.26789 0.15635,-0.59921 0,-0.8671c-0.15635,-0.26789 -0.44484,-0.43084 -0.75498,-0.42645h-22.34992c0.04213,-11.48117 0.91151,-22.13646 2.37172,-30.96h21.0364c1.49701,9.04591 2.3818,20.00732 2.3818,31.82c0,10.65815 -0.71856,20.62415 -1.95852,29.1157c-0.04445,0.30427 0.07682,0.60913 0.31812,0.79974c0.24129,0.19061 0.56595,0.23799 0.85166,0.12431c0.28571,-0.11369 0.48905,-0.37117 0.53343,-0.67545c1.25405,-8.58805 1.97531,-18.62908 1.97531,-29.3643c0,-11.775 -0.86624,-22.71342 -2.35492,-31.82h14.39492c0.31015,0.00439 0.59863,-0.15856 0.75498,-0.42645c0.15635,-0.26789 0.15635,-0.59921 0,-0.8671c-0.15635,-0.26789 -0.44484,-0.43084 -0.75498,-0.42645h-14.70398c-0.42481,-2.39966 -0.88133,-4.69793 -1.39078,-6.79938c-1.25686,-5.18448 -2.7512,-9.39648 -4.46461,-12.38602c-0.64451,-1.12453 -1.33069,-2.09494 -2.06266,-2.86891zM98.9,30.94656c12.56259,3.17524 23.42417,10.59656 30.97344,20.65344h-2.59344c-0.31015,-0.00439 -0.59863,0.15856 -0.75498,0.42645c-0.15635,0.26789 -0.15635,0.59921 0,0.8671c0.15635,0.26789 0.44484,0.43084 0.75498,0.42645h3.82297c6.10798,8.81007 9.7397,19.45972 9.91352,30.96h-8.51602h-3.50047c-0.08631,-0.00168 -0.17238,0.00965 -0.25531,0.03359c-0.05474,0.01708 -0.10763,0.03959 -0.15789,0.06719c-0.02535,0.01332 -0.05001,0.02789 -0.07391,0.04367c-0.04827,0.03125 -0.09329,0.06726 -0.13438,0.1075c-0.02008,0.02031 -0.03914,0.04162 -0.05711,0.06383c-0.01797,0.02265 -0.03479,0.0462 -0.05039,0.07055c-0.03184,0.04758 -0.05885,0.09822 -0.08062,0.15117c-0.03244,0.07939 -0.05282,0.16318 -0.06047,0.24859c-0.01205,0.14367 0.01221,0.28807 0.07055,0.41992c0.02284,0.05308 0.05098,0.10373 0.08398,0.15117c0.01678,0.02328 0.03472,0.0457 0.05375,0.06719c0.01914,0.02115 0.03932,0.04133 0.06047,0.06047c0.02031,0.02008 0.04162,0.03914 0.06383,0.05711c0.02273,0.01683 0.04627,0.03252 0.07055,0.04703c0.02499,0.01588 0.05078,0.03045 0.07727,0.04367c0.05159,0.0255 0.10561,0.04576 0.16125,0.06047c0.0746,0.01915 0.15143,0.02818 0.22844,0.02688h3.44h8.57648c-0.17381,11.50028 -3.80554,22.14993 -9.91352,30.96h-12.2718c4.24898,-9.12986 6.72883,-20.05789 6.72883,-31.82c0,-15.83547 -4.46483,-30.18831 -11.74102,-40.62828c-4.14799,-5.95159 -9.23169,-10.63429 -14.91898,-13.56515zM70.06984,31.81328c-0.16352,-0.00239 -0.32434,0.04189 -0.46359,0.12765c-0.91371,0.54224 -1.811,1.12554 -2.69086,1.76031c-0.38591,0.27737 -0.4739,0.81507 -0.19652,1.20098c0.27737,0.38591 0.81507,0.4739 1.20098,0.19652c0.8367,-0.60363 1.69155,-1.16241 2.5632,-1.67969c0.33544,-0.19265 0.501,-0.58554 0.4046,-0.96017c-0.0964,-0.37462 -0.43103,-0.6388 -0.8178,-0.64562zM63.30406,36.96992c-0.22293,0.00267 -0.43612,0.09179 -0.59461,0.24859c-1.14481,1.09046 -2.25346,2.25561 -3.31234,3.50383c-0.30799,0.36272 -0.26362,0.90643 0.0991,1.21441c0.36272,0.30799 0.90643,0.26362 1.21441,-0.0991c1.01888,-1.20106 2.08318,-2.32696 3.18469,-3.37617c0.26091,-0.24124 0.3466,-0.61811 0.21565,-0.94845c-0.13095,-0.33034 -0.45157,-0.54615 -0.8069,-0.54311zM57.405,43.84992c-0.28445,-0.00112 -0.55106,0.13847 -0.71219,0.37289c-1.16766,1.65112 -2.27322,3.39519 -3.29555,5.24062c-0.23006,0.41559 -0.07966,0.939 0.33594,1.16906c0.41559,0.23006 0.939,0.07966 1.16906,-0.33594c0.99007,-1.7872 2.06106,-3.47626 3.19477,-5.07938c0.19066,-0.26113 0.21877,-0.60712 0.07276,-0.89559c-0.14601,-0.28848 -0.44147,-0.4707 -0.76479,-0.47167zM122.12,51.6c-0.31015,-0.00439 -0.59863,0.15856 -0.75498,0.42645c-0.15635,0.26789 -0.15635,0.59921 0,0.8671c0.15635,0.26789 0.44484,0.43084 0.75498,0.42645h1.72c0.31015,0.00439 0.59863,-0.15856 0.75498,-0.42645c0.15635,-0.26789 0.15635,-0.59921 0,-0.8671c-0.15635,-0.26789 -0.44484,-0.43084 -0.75498,-0.42645zM39.17703,53.32h33.69789c-1.45199,8.88208 -2.30346,19.51601 -2.34485,30.96h-24.00609c0.11586,-10.60602 2.20895,-20.52107 5.86883,-28.89734c0.14053,-0.28444 0.11307,-0.62314 -0.07145,-0.88122c-0.18452,-0.25808 -0.49614,-0.39362 -0.81074,-0.35265c-0.3146,0.04098 -0.5811,0.25182 -0.69336,0.54855c-3.7607,8.60703 -5.89758,18.74633 -6.01328,29.58266h-15.54047c0.17381,-11.50028 3.80554,-22.14993 9.91352,-30.96zM103.2,84.28c-0.31015,-0.00439 -0.59863,0.15856 -0.75498,0.42645c-0.15635,0.26789 -0.15635,0.59921 0,0.8671c0.15635,0.26789 0.44484,0.43084 0.75498,0.42645h8.6c0.31015,0.00439 0.59863,-0.15856 0.75498,-0.42645c0.15635,-0.26789 0.15635,-0.59921 0,-0.8671c-0.15635,-0.26789 -0.44484,-0.43084 -0.75498,-0.42645zM116.96,84.28c-0.31015,-0.00439 -0.59863,0.15856 -0.75498,0.42645c-0.15635,0.26789 -0.15635,0.59921 0,0.8671c0.15635,0.26789 0.44484,0.43084 0.75498,0.42645h3.44c0.31015,0.00439 0.59863,-0.15856 0.75498,-0.42645c0.15635,-0.26789 0.15635,-0.59921 0,-0.8671c-0.15635,-0.26789 -0.44484,-0.43084 -0.75498,-0.42645zM29.26352,86h15.51695c0.11987,11.427 2.52578,22.05875 6.66836,30.96h-12.2718c-6.10798,-8.81007 -9.7397,-19.45972 -9.91352,-30.96zM46.50047,86h24.02961c0.04139,11.44399 0.89286,22.07792 2.34485,30.96h-19.49781c-4.23868,-8.80399 -6.75288,-19.45088 -6.87664,-30.96zM40.40656,118.68h11.97617c1.2546,2.48611 2.56593,4.91833 4.07828,7.08828c4.17364,5.9884 9.2978,10.67163 15.02984,13.58867c-12.60897,-3.1597 -23.51309,-10.59086 -31.0843,-20.67695zM54.36477,118.68h18.81922c0.42481,2.39966 0.88133,4.69793 1.39078,6.79938c1.25686,5.18448 2.7512,9.39648 4.46461,12.38602c0.64451,1.12453 1.33069,2.09494 2.06266,2.86891c-8.98993,-1.34821 -17.09488,-7.14744 -23.23008,-15.95031c-1.29808,-1.8625 -2.40018,-3.98999 -3.50719,-6.10398zM74.93422,118.68h40.98102c-1.10701,2.114 -2.20911,4.24148 -3.50719,6.10398c-6.13906,8.80841 -14.25017,14.61023 -23.24688,15.95367c0.43173,-0.45382 0.84579,-0.96934 1.24297,-1.54531c1.50682,-2.18514 2.84415,-5.25821 4.02789,-9.07703c0.14101,-0.45363 -0.11243,-0.93567 -0.56605,-1.07668c-0.45363,-0.14101 -0.93567,0.11243 -1.07668,0.56605c-1.15202,3.7165 -2.45408,6.66241 -3.79945,8.61344c-1.34537,1.95103 -2.65712,2.82188 -3.84984,2.82188c-1.42039,0 -3.03007,-1.27289 -4.60906,-4.02789c-1.57899,-2.755 -3.04993,-6.85207 -4.2832,-11.93922c-0.47858,-1.97414 -0.9091,-4.13824 -1.31352,-6.39289zM117.89727,118.68h11.97617c-7.57261,10.08797 -18.47905,17.52162 -31.09101,20.68031c5.73502,-2.91585 10.86122,-7.6012 15.03656,-13.59203c1.51235,-2.16995 2.82368,-4.60217 4.07828,-7.08828zM95.74219,120.38656c-0.40921,0.00777 -0.75626,0.30284 -0.82976,0.70547c-0.23705,1.18181 -0.48637,2.31069 -0.74578,3.40977c-0.0821,0.30292 0.00732,0.62651 0.2333,0.84429c0.22598,0.21779 0.55266,0.29519 0.85233,0.20196c0.29968,-0.09323 0.52478,-0.3423 0.58733,-0.64985c0.26347,-1.11629 0.5181,-2.26812 0.75922,-3.47023c0.05544,-0.25684 -0.00957,-0.52493 -0.17649,-0.72785c-0.16692,-0.20292 -0.41744,-0.31841 -0.68015,-0.31355z"></path></g></g></svg>
