<svg xmlns="http://www.w3.org/2000/svg" x="0px" y="0px"
width="64" height="64"
viewBox="0 0 172 172"
style=" fill:#000000;"><g fill="none" fill-rule="nonzero" stroke="none" stroke-width="1" stroke-linecap="butt" stroke-linejoin="miter" stroke-miterlimit="10" stroke-dasharray="" stroke-dashoffset="0" font-family="none" font-weight="none" font-size="none" text-anchor="none" style="mix-blend-mode: normal"><path d="M0,172v-172h172v172z" fill="none"></path><g fill="#8494a7"><path d="M29.5625,10.75c-4.44067,0 -8.0625,3.62183 -8.0625,8.0625v120.9375h-10.75c-2.96045,0 -5.375,2.41455 -5.375,5.375v5.375c0,5.9314 4.8186,10.75 10.75,10.75h129c5.9314,0 10.75,-4.8186 10.75,-10.75v-131.6875c0,-4.44067 -3.62183,-8.0625 -8.0625,-8.0625zM29.5625,16.125h118.25c1.48022,0 2.6875,1.20728 2.6875,2.6875v131.6875c0,2.96045 -2.41455,5.375 -5.375,5.375c-2.96045,0 -5.375,-2.41455 -5.375,-5.375v-5.375c0,-2.96045 -2.41455,-5.375 -5.375,-5.375h-107.5v-120.9375c0,-1.48022 1.20728,-2.6875 2.6875,-2.6875zM53.75,32.25c-1.49072,0 -2.6875,1.19678 -2.6875,2.6875v2.6875c-4.44067,0 -8.0625,3.62183 -8.0625,8.0625v8.0625c0,4.44067 3.62183,8.0625 8.0625,8.0625h5.375c1.48022,0 2.6875,1.20728 2.6875,2.6875v8.0625c0,1.48022 -1.20728,2.6875 -2.6875,2.6875h-5.375c-1.48022,0 -2.6875,-1.20728 -2.6875,-2.6875v-2.6875c0,-1.49072 -1.19678,-2.6875 -2.6875,-2.6875c-1.49072,0 -2.6875,1.19678 -2.6875,2.6875v2.6875c0,4.44067 3.62183,8.0625 8.0625,8.0625v2.6875c0,1.49072 1.19678,2.6875 2.6875,2.6875c1.49072,0 2.6875,-1.19678 2.6875,-2.6875v-2.6875c4.44067,0 8.0625,-3.62183 8.0625,-8.0625v-8.0625c0,-4.44067 -3.62183,-8.0625 -8.0625,-8.0625h-5.375c-1.48022,0 -2.6875,-1.20728 -2.6875,-2.6875v-8.0625c0,-1.48022 1.20728,-2.6875 2.6875,-2.6875h5.375c1.48022,0 2.6875,1.20728 2.6875,2.6875v2.6875c0,1.49072 1.19678,2.6875 2.6875,2.6875c1.49072,0 2.6875,-1.19678 2.6875,-2.6875v-2.6875c0,-4.44067 -3.62183,-8.0625 -8.0625,-8.0625v-2.6875c0,-1.49072 -1.19678,-2.6875 -2.6875,-2.6875zM77.9375,37.625c-1.49072,0 -2.6875,1.19678 -2.6875,2.6875c0,1.49072 1.19678,2.6875 2.6875,2.6875h21.5c1.49072,0 2.6875,-1.19678 2.6875,-2.6875c0,-1.49072 -1.19678,-2.6875 -2.6875,-2.6875zM110.1875,37.625c-1.49072,0 -2.6875,1.19678 -2.6875,2.6875c0,1.49072 1.19678,2.6875 2.6875,2.6875h16.125c1.49072,0 2.6875,-1.19678 2.6875,-2.6875c0,-1.49072 -1.19678,-2.6875 -2.6875,-2.6875zM77.9375,48.375c-1.49072,0 -2.6875,1.19678 -2.6875,2.6875c0,1.49072 1.19678,2.6875 2.6875,2.6875h37.625c1.49072,0 2.6875,-1.19678 2.6875,-2.6875c0,-1.49072 -1.19678,-2.6875 -2.6875,-2.6875zM77.9375,75.25c-1.49072,0 -2.6875,1.19678 -2.6875,2.6875c0,1.49072 1.19678,2.6875 2.6875,2.6875h48.375c1.49072,0 2.6875,-1.19678 2.6875,-2.6875c0,-1.49072 -1.19678,-2.6875 -2.6875,-2.6875zM77.9375,86c-1.49072,0 -2.6875,1.19678 -2.6875,2.6875c0,1.49072 1.19678,2.6875 2.6875,2.6875h21.5c1.49072,0 2.6875,-1.19678 2.6875,-2.6875c0,-1.49072 -1.19678,-2.6875 -2.6875,-2.6875zM110.1875,86c-1.49072,0 -2.6875,1.19678 -2.6875,2.6875c0,1.49072 1.19678,2.6875 2.6875,2.6875h5.375c1.49072,0 2.6875,-1.19678 2.6875,-2.6875c0,-1.49072 -1.19678,-2.6875 -2.6875,-2.6875zM37.625,118.25c-1.49072,0 -2.6875,1.19678 -2.6875,2.6875v5.375c0,1.49072 1.19678,2.6875 2.6875,2.6875c1.49072,0 2.6875,-1.19678 2.6875,-2.6875v-5.375c0,-1.49072 -1.19678,-2.6875 -2.6875,-2.6875zM51.0625,118.25c-1.49072,0 -2.6875,1.19678 -2.6875,2.6875v5.375c0,1.49072 1.19678,2.6875 2.6875,2.6875c1.49072,0 2.6875,-1.19678 2.6875,-2.6875v-5.375c0,-1.49072 -1.19678,-2.6875 -2.6875,-2.6875zM64.5,118.25c-1.49072,0 -2.6875,1.19678 -2.6875,2.6875v5.375c0,1.49072 1.19678,2.6875 2.6875,2.6875c1.49072,0 2.6875,-1.19678 2.6875,-2.6875v-5.375c0,-1.49072 -1.19678,-2.6875 -2.6875,-2.6875zM77.9375,118.25c-1.49072,0 -2.6875,1.19678 -2.6875,2.6875v5.375c0,1.49072 1.19678,2.6875 2.6875,2.6875c1.49072,0 2.6875,-1.19678 2.6875,-2.6875v-5.375c0,-1.49072 -1.19678,-2.6875 -2.6875,-2.6875zM91.375,118.25c-1.49072,0 -2.6875,1.19678 -2.6875,2.6875v5.375c0,1.49072 1.19678,2.6875 2.6875,2.6875c1.49072,0 2.6875,-1.19678 2.6875,-2.6875v-5.375c0,-1.49072 -1.19678,-2.6875 -2.6875,-2.6875zM104.8125,118.25c-1.49072,0 -2.6875,1.19678 -2.6875,2.6875v5.375c0,1.49072 1.19678,2.6875 2.6875,2.6875c1.49072,0 2.6875,-1.19678 2.6875,-2.6875v-5.375c0,-1.49072 -1.19678,-2.6875 -2.6875,-2.6875zM118.25,118.25c-1.49072,0 -2.6875,1.19678 -2.6875,2.6875v5.375c0,1.49072 1.19678,2.6875 2.6875,2.6875c1.49072,0 2.6875,-1.19678 2.6875,-2.6875v-5.375c0,-1.49072 -1.19678,-2.6875 -2.6875,-2.6875zM131.6875,118.25c-1.49072,0 -2.6875,1.19678 -2.6875,2.6875v5.375c0,1.49072 1.19678,2.6875 2.6875,2.6875c1.49072,0 2.6875,-1.19678 2.6875,-2.6875v-5.375c0,-1.49072 -1.19678,-2.6875 -2.6875,-2.6875zM145.125,118.25c-1.49072,0 -2.6875,1.19678 -2.6875,2.6875v5.375c0,1.49072 1.19678,2.6875 2.6875,2.6875c1.49072,0 2.6875,-1.19678 2.6875,-2.6875v-5.375c0,-1.49072 -1.19678,-2.6875 -2.6875,-2.6875zM10.75,145.125h123.625v5.375c0,1.96314 0.5669,3.78979 1.50122,5.375h-119.75122c-2.96045,0 -5.375,-2.41455 -5.375,-5.375z"></path></g></g></svg>
