<svg version="1.1" xmlns="http://www.w3.org/2000/svg" xmlns:xlink="http://www.w3.org/1999/xlink" viewBox="0 0 60 60" xml:space="preserve" data-animoptions="{'duration':'0.2'}" preserveAspectRatio="xMinYMin meet" style="left: 0px; top: -0.400024px;"><g class="lievo-setrotation"><g class="lievo-setsharp" style="transform-origin: 0px 0px 0px;" data-svg-origin="30.625 30" transform="matrix(1,0,0,1,-0.6250002980232194,-0.6250002980232194)"><g class="lievo-setflip"><g class="lievo-main">
		<g class="lievo-morphstartstate">


			<g class="lievo-lineicon">
				<defs>
					<clipPath id="livicon_m_map_s_17_16_15">
						<path class="lievo-donotdraw lievo-nohovercolor lievo-nohoverstroke" d="M30,13l7-4l14,8v34l-14-8l-14,8L9,43V9l14,8L30,13" style="stroke-width: 0px;" stroke="none" fill="none" data-original="M30,13l7-4l14,8v34l-14-8l-14,8L9,43V9l14,8L30,13"></path>
					</clipPath>
				</defs>
				<g clip-path="url(#livicon_m_map_s_17_16_15)">
					<path class="lievo-altstroke" fill="none" stroke="#8494a7" stroke-width="3.25px" stroke-linecap="square" stroke-miterlimit="10" d="M23,17v34" style="" data-original="M23,17v34" data-svg-origin="23 34" transform="matrix(1,0,0,1,0,0)"></path>
					<path class="lievo-altstroke" fill="none" stroke="#8494a7" stroke-width="3.25px" stroke-linecap="square" stroke-miterlimit="10" d="M37,9v34" style="" data-original="M37,9v34" data-svg-origin="37 26" transform="matrix(1,0,0,1,0,0)"></path>
					<path class="lievo-donotdraw lievo-altstroke" fill="none" stroke="#8494a7" stroke-width="3.25px" stroke-linecap="square" stroke-miterlimit="10" opacity="0" d="M64,34c-0.73,0.06-1.45,0.07-2.15,0.05 M52.47,31.48c1.13,0.57,2.31,1.08,3.54,1.5 M47.51,28.56c-1.2-0.77-2.37-1.55-3.52-2.26 M39,23.75C37.7,23.28,36.37,23,35,23 M30,24.92c-1.08,0.9-2.03,2.03-2.96,3.21 M19.92,34.52c1.38-0.48,2.54-1.29,3.58-2.27 M14.59,35.31c-1.31,0.32-2.61,0.89-3.89,1.61 M5.98,40.31C5.01,41.14,4.1,42,3.26,42.85 M-0.7,47.31C-1.53,48.34-2,49-2,49" style="opacity: 0;"></path>
				</g>
				<path fill="none" stroke="#8494a7" stroke-width="3.25px" stroke-linecap="square" stroke-miterlimit="10" d="M30,13l7-4l14,8v34l-14-8l-14,8L9,43V9l14,8L30,13" style="" data-original="M30,13l7-4l14,8v34l-14-8l-14,8L9,43V9l14,8L30,13"></path>
			</g>


		</g>


	<rect x="-19" y="-19" width="4" height="4" class="lievo-checkshift lievo-donotdraw lievo-nohoverstroke lievo-nohovercolor" style="stroke-width: 2px; stroke-linecap: butt; stroke-linejoin: round; opacity: 0;" fill="none" stroke="#8494a7" stroke-width="3.25px"></rect></g></g></g></g>

<desc>LivIcons Evolution</desc></svg>
