<svg xmlns="http://www.w3.org/2000/svg" x="0px" y="0px"
width="32" height="32"
viewBox="0 0 172 172"
style=" fill:#000000;"><g fill="none" fill-rule="nonzero" stroke="none" stroke-width="1" stroke-linecap="butt" stroke-linejoin="miter" stroke-miterlimit="10" stroke-dasharray="" stroke-dashoffset="0" font-family="none" font-weight="none" font-size="none" text-anchor="none" style="mix-blend-mode: normal"><path d="M0,172v-172h172v172z" fill="none"></path><g fill="#8494a7"><path d="M75.25,21.5c-20.71606,0 -37.625,16.90896 -37.625,37.625c0,12.93925 6.59674,24.3925 16.59741,31.1687c-19.21582,8.20161 -32.72241,27.27804 -32.72241,49.4563h10.75c0,-14.07203 6.82952,-26.5421 17.31128,-34.3916c5.89778,7.80602 15.19961,12.8916 25.68872,12.8916c10.48083,0 19.77963,-5.07511 25.67822,-12.8706c3.65605,2.74472 6.90459,6.0159 9.53222,9.76318l7.66357,-7.67407c-5.64903,-7.48257 -13.22953,-13.3836 -21.95141,-17.11182c10.05738,-6.76736 16.70239,-18.24882 16.70239,-31.23169c0,-20.71604 -16.90894,-37.625 -37.625,-37.625zM75.25,32.25c14.90633,0 26.875,11.96868 26.875,26.875c0,14.90632 -11.96867,26.875 -26.875,26.875c-14.90633,0 -26.875,-11.96868 -26.875,-26.875c0,-14.90632 11.96867,-26.875 26.875,-26.875zM155.875,91.375c-4.03125,0 -8.0604,1.6146 -11.2854,4.8396l-47.3042,47.2937l-5.9104,28.4917l28.4917,-5.9104l47.2937,-47.3042c3.225,-3.225 4.8396,-7.25415 4.8396,-11.2854c0,-4.03125 -1.6146,-8.0604 -4.8396,-11.2854c-3.225,-3.225 -7.25415,-4.8396 -11.2854,-4.8396zM75.25,96.75c5.77326,0 11.26272,1.17812 16.29297,3.2544c-3.9331,4.57741 -9.74365,7.4956 -16.29297,7.4956c-6.56275,0 -12.39108,-2.92294 -16.32446,-7.5166c5.03754,-2.07579 10.54701,-3.2334 16.32446,-3.2334zM155.875,102.125c1.34375,0 2.6833,0.5417 3.7583,1.6167c2.15,2.15 2.15,5.3666 0,7.5166l-45.1416,45.1521l-9.1438,1.6167l1.6167,-9.1438l45.1521,-45.1416c1.075,-1.075 2.41455,-1.6167 3.7583,-1.6167z"></path></g></g></svg>
