<svg xmlns="http://www.w3.org/2000/svg" x="0px" y="0px"
width="50" height="50"
viewBox="0 0 172 172"
style=" fill:#000000;"><g fill="none" fill-rule="nonzero" stroke="none" stroke-width="1" stroke-linecap="butt" stroke-linejoin="miter" stroke-miterlimit="10" stroke-dasharray="" stroke-dashoffset="0" font-family="none" font-weight="none" font-size="none" text-anchor="none" style="mix-blend-mode: normal"><path d="M0,172v-172h172v172z" fill="none"></path><g fill="#8494a7"><path d="M57.835,0c-1.63937,0.30906 -2.82187,1.76031 -2.795,3.44v3.44h-27.52c-5.65719,0 -10.32,4.66281 -10.32,10.32v144.48c0,5.65719 4.66281,10.32 10.32,10.32h116.96c5.65719,0 10.32,-4.66281 10.32,-10.32v-144.48c0,-5.65719 -4.66281,-10.32 -10.32,-10.32h-27.52v-3.44c0,-1.89469 -1.54531,-3.44 -3.44,-3.44h-55.04c-0.1075,0 -0.215,0 -0.3225,0c-0.1075,0 -0.215,0 -0.3225,0zM61.92,6.88h48.16v20.64h-48.16zM27.52,13.76h27.52v6.88h-24.08v137.6h110.08v-137.6h-24.08v-6.88h27.52c1.90813,0 3.44,1.53188 3.44,3.44v144.48c0,1.90813 -1.53187,3.44 -3.44,3.44h-116.96c-1.90812,0 -3.44,-1.53187 -3.44,-3.44v-144.48c0,-1.90812 1.53188,-3.44 3.44,-3.44zM37.84,27.52h17.2v3.44c0,1.89469 1.54531,3.44 3.44,3.44h55.04c1.89469,0 3.44,-1.54531 3.44,-3.44v-3.44h17.2v123.84h-96.32zM112.5525,64.07l-1.935,2.9025l-27.95,43.3225l-18.49,-16.555l-2.4725,-2.2575l-4.6225,5.0525l2.58,2.365l21.285,19.2425l3.01,2.6875l2.15,-3.3325l30.315,-46.87l1.8275,-2.795z"></path></g></g></svg>
