<svg xmlns="http://www.w3.org/2000/svg" x="0px" y="0px"
width="100" height="100"
viewBox="0 0 172 172"
style=" fill:#000000;"><g fill="none" fill-rule="nonzero" stroke="none" stroke-width="1" stroke-linecap="butt" stroke-linejoin="miter" stroke-miterlimit="10" stroke-dasharray="" stroke-dashoffset="0" font-family="none" font-weight="none" font-size="none" text-anchor="none" style="mix-blend-mode: normal"><path d="M0,172v-172h172v172z" fill="none"></path><g fill="#8494a7"><path d="M141.04,3.44c-7.94156,0 -15.11719,1.15563 -20.64,3.225c-2.75469,1.03469 -5.13312,2.32469 -6.9875,3.9775c-1.85437,1.65281 -3.3325,3.89688 -3.3325,6.5575v76.97c-1.06156,-0.56437 -2.21719,-1.04812 -3.44,-1.505c-5.52281,-2.06937 -12.69844,-3.225 -20.64,-3.225c-7.94156,0 -15.11719,1.15563 -20.64,3.225c-1.22281,0.45688 -2.37844,0.94063 -3.44,1.505v-25.37c0,-2.66062 -1.47812,-4.90469 -3.3325,-6.5575c-1.85437,-1.65281 -4.23281,-2.94281 -6.9875,-3.9775c-5.52281,-2.06937 -12.69844,-3.225 -20.64,-3.225c-7.94156,0 -15.11719,1.15563 -20.64,3.225c-2.75469,1.03469 -5.13312,2.32469 -6.9875,3.9775c-1.85437,1.65281 -3.3325,3.89688 -3.3325,6.5575v86c0,2.67406 1.46469,4.99875 3.3325,6.665c1.86781,1.66625 4.21938,2.84875 6.9875,3.87c5.53625,2.05594 12.73875,3.225 20.64,3.225c7.90125,0 15.10375,-1.16906 20.64,-3.225c2.71438,-1.00781 5.02563,-2.15 6.88,-3.7625c1.85438,1.6125 4.16563,2.75469 6.88,3.7625c5.53625,2.05594 12.73875,3.225 20.64,3.225c7.90125,0 15.10375,-1.16906 20.64,-3.225c2.71438,-1.00781 5.02563,-2.15 6.88,-3.7625c1.85438,1.6125 4.16563,2.75469 6.88,3.7625c5.53625,2.05594 12.73875,3.225 20.64,3.225c7.90125,0 15.10375,-1.16906 20.64,-3.225c2.76813,-1.02125 5.11969,-2.20375 6.9875,-3.87c1.86781,-1.66625 3.3325,-3.99094 3.3325,-6.665v-137.6c0,-2.66062 -1.47812,-4.90469 -3.3325,-6.5575c-1.85437,-1.65281 -4.23281,-2.94281 -6.9875,-3.9775c-5.52281,-2.06937 -12.69844,-3.225 -20.64,-3.225zM141.04,10.32c7.25625,0 13.82719,1.12875 18.275,2.795c2.21719,0.83313 3.91031,1.86781 4.8375,2.6875c0.92719,0.81969 0.9675,1.20938 0.9675,1.3975c0,0.18813 -0.04031,0.57781 -0.9675,1.3975c-0.92719,0.81969 -2.62031,1.85438 -4.8375,2.6875c-4.44781,1.66625 -11.01875,2.795 -18.275,2.795c-7.25625,0 -13.82719,-1.12875 -18.275,-2.795c-2.21719,-0.83312 -3.91031,-1.86781 -4.8375,-2.6875c-0.92719,-0.81969 -0.9675,-1.20937 -0.9675,-1.3975c0,-0.18812 0.04031,-0.57781 0.9675,-1.3975c0.92719,-0.81969 2.62031,-1.85437 4.8375,-2.6875c4.44781,-1.66625 11.01875,-2.795 18.275,-2.795zM116.96,26.23c1.06156,0.56438 2.21719,1.04813 3.44,1.505c5.52281,2.06938 12.69844,3.225 20.64,3.225c7.94156,0 15.11719,-1.15562 20.64,-3.225c1.22281,-0.45687 2.37844,-0.94062 3.44,-1.505v8.17c0,0.24188 -0.04031,0.68531 -0.9675,1.505c-0.92719,0.81969 -2.62031,1.76031 -4.8375,2.58c-4.44781,1.65281 -11.04562,2.795 -18.275,2.795c-7.22937,0 -13.82719,-1.14219 -18.275,-2.795c-2.21719,-0.81969 -3.91031,-1.76031 -4.8375,-2.58c-0.92719,-0.81969 -0.9675,-1.26312 -0.9675,-1.505zM116.96,43.43c1.06156,0.55094 2.21719,1.04813 3.44,1.505c5.53625,2.05594 12.73875,3.225 20.64,3.225c7.90125,0 15.10375,-1.16906 20.64,-3.225c1.22281,-0.45687 2.37844,-0.95406 3.44,-1.505v8.17c0,0.24188 -0.04031,0.68531 -0.9675,1.505c-0.92719,0.81969 -2.62031,1.76031 -4.8375,2.58c-4.44781,1.65281 -11.04562,2.795 -18.275,2.795c-7.22937,0 -13.82719,-1.14219 -18.275,-2.795c-2.21719,-0.81969 -3.91031,-1.76031 -4.8375,-2.58c-0.92719,-0.81969 -0.9675,-1.26312 -0.9675,-1.505zM116.96,60.63c1.06156,0.55094 2.21719,1.04813 3.44,1.505c5.53625,2.05594 12.73875,3.225 20.64,3.225c7.90125,0 15.10375,-1.16906 20.64,-3.225c1.22281,-0.45687 2.37844,-0.95406 3.44,-1.505v8.17c0,0.24188 -0.04031,0.68531 -0.9675,1.505c-0.92719,0.81969 -2.62031,1.76031 -4.8375,2.58c-4.44781,1.65281 -11.04562,2.795 -18.275,2.795c-7.22937,0 -13.82719,-1.14219 -18.275,-2.795c-2.21719,-0.81969 -3.91031,-1.76031 -4.8375,-2.58c-0.92719,-0.81969 -0.9675,-1.26312 -0.9675,-1.505zM30.96,61.92c7.25625,0 13.82719,1.12875 18.275,2.795c2.21719,0.83313 3.91031,1.86781 4.8375,2.6875c0.92719,0.81969 0.9675,1.20938 0.9675,1.3975c0,0.18813 -0.04031,0.57781 -0.9675,1.3975c-0.92719,0.81969 -2.62031,1.85438 -4.8375,2.6875c-4.44781,1.66625 -11.01875,2.795 -18.275,2.795c-7.25625,0 -13.82719,-1.12875 -18.275,-2.795c-2.21719,-0.83312 -3.91031,-1.86781 -4.8375,-2.6875c-0.92719,-0.81969 -0.9675,-1.20937 -0.9675,-1.3975c0,-0.18812 0.04031,-0.57781 0.9675,-1.3975c0.92719,-0.81969 2.62031,-1.85437 4.8375,-2.6875c4.44781,-1.66625 11.01875,-2.795 18.275,-2.795zM6.88,77.83c1.06156,0.56438 2.21719,1.04813 3.44,1.505c5.52281,2.06938 12.69844,3.225 20.64,3.225c7.94156,0 15.11719,-1.15562 20.64,-3.225c1.22281,-0.45687 2.37844,-0.94062 3.44,-1.505v8.17c0,0.24188 -0.04031,0.68531 -0.9675,1.505c-0.92719,0.81969 -2.62031,1.76031 -4.8375,2.58c-4.44781,1.65281 -11.04562,2.795 -18.275,2.795c-7.22937,0 -13.82719,-1.14219 -18.275,-2.795c-2.21719,-0.81969 -3.91031,-1.76031 -4.8375,-2.58c-0.92719,-0.81969 -0.9675,-1.26312 -0.9675,-1.505zM116.96,77.83c1.06156,0.55094 2.21719,1.04813 3.44,1.505c5.53625,2.05594 12.73875,3.225 20.64,3.225c7.90125,0 15.10375,-1.16906 20.64,-3.225c1.22281,-0.45687 2.37844,-0.95406 3.44,-1.505v8.17c0,0.24188 -0.04031,0.68531 -0.9675,1.505c-0.92719,0.81969 -2.62031,1.76031 -4.8375,2.58c-4.44781,1.65281 -11.04562,2.795 -18.275,2.795c-7.22937,0 -13.82719,-1.14219 -18.275,-2.795c-2.21719,-0.81969 -3.91031,-1.76031 -4.8375,-2.58c-0.92719,-0.81969 -0.9675,-1.26312 -0.9675,-1.505zM6.88,95.03c1.06156,0.55094 2.21719,1.04813 3.44,1.505c5.53625,2.05594 12.73875,3.225 20.64,3.225c7.90125,0 15.10375,-1.16906 20.64,-3.225c1.22281,-0.45687 2.37844,-0.95406 3.44,-1.505v8.17c0,0.24188 -0.04031,0.68531 -0.9675,1.505c-0.92719,0.81969 -2.62031,1.76031 -4.8375,2.58c-4.44781,1.65281 -11.04562,2.795 -18.275,2.795c-7.22937,0 -13.82719,-1.14219 -18.275,-2.795c-2.21719,-0.81969 -3.91031,-1.76031 -4.8375,-2.58c-0.92719,-0.81969 -0.9675,-1.26312 -0.9675,-1.505zM116.96,95.03c1.06156,0.55094 2.21719,1.04813 3.44,1.505c5.53625,2.05594 12.73875,3.225 20.64,3.225c7.90125,0 15.10375,-1.16906 20.64,-3.225c1.22281,-0.45687 2.37844,-0.95406 3.44,-1.505v8.17c0,0.24188 -0.04031,0.68531 -0.9675,1.505c-0.92719,0.81969 -2.62031,1.76031 -4.8375,2.58c-4.44781,1.65281 -11.04562,2.795 -18.275,2.795c-7.22937,0 -13.82719,-1.14219 -18.275,-2.795c-2.21719,-0.81969 -3.91031,-1.76031 -4.8375,-2.58c-0.92719,-0.81969 -0.9675,-1.26312 -0.9675,-1.505zM86,96.32c7.25625,0 13.82719,1.12875 18.275,2.795c2.21719,0.83313 3.91031,1.86781 4.8375,2.6875c0.92719,0.81969 0.9675,1.20938 0.9675,1.3975c0,0.18813 -0.04031,0.57781 -0.9675,1.3975c-0.92719,0.81969 -2.62031,1.85438 -4.8375,2.6875c-4.44781,1.66625 -11.01875,2.795 -18.275,2.795c-7.25625,0 -13.82719,-1.12875 -18.275,-2.795c-2.21719,-0.83312 -3.91031,-1.86781 -4.8375,-2.6875c-0.92719,-0.81969 -0.9675,-1.20937 -0.9675,-1.3975c0,-0.18812 0.04031,-0.57781 0.9675,-1.3975c0.92719,-0.81969 2.62031,-1.85437 4.8375,-2.6875c4.44781,-1.66625 11.01875,-2.795 18.275,-2.795zM6.88,112.23c1.06156,0.55094 2.21719,1.04813 3.44,1.505c5.53625,2.05594 12.73875,3.225 20.64,3.225c7.90125,0 15.10375,-1.16906 20.64,-3.225c1.22281,-0.45687 2.37844,-0.95406 3.44,-1.505v8.17c0,0.24188 -0.04031,0.68531 -0.9675,1.505c-0.92719,0.81969 -2.62031,1.76031 -4.8375,2.58c-4.44781,1.65281 -11.04562,2.795 -18.275,2.795c-7.22937,0 -13.82719,-1.14219 -18.275,-2.795c-2.21719,-0.81969 -3.91031,-1.76031 -4.8375,-2.58c-0.92719,-0.81969 -0.9675,-1.26312 -0.9675,-1.505zM61.92,112.23c1.06156,0.56438 2.21719,1.04813 3.44,1.505c5.52281,2.06938 12.69844,3.225 20.64,3.225c7.94156,0 15.11719,-1.15562 20.64,-3.225c1.22281,-0.45687 2.37844,-0.94062 3.44,-1.505v8.17c0,0.24188 -0.04031,0.68531 -0.9675,1.505c-0.92719,0.81969 -2.62031,1.76031 -4.8375,2.58c-4.44781,1.65281 -11.04562,2.795 -18.275,2.795c-7.22937,0 -13.82719,-1.14219 -18.275,-2.795c-2.21719,-0.81969 -3.91031,-1.76031 -4.8375,-2.58c-0.92719,-0.81969 -0.9675,-1.26312 -0.9675,-1.505zM116.96,112.23c1.06156,0.55094 2.21719,1.04813 3.44,1.505c5.53625,2.05594 12.73875,3.225 20.64,3.225c7.90125,0 15.10375,-1.16906 20.64,-3.225c1.22281,-0.45687 2.37844,-0.95406 3.44,-1.505v8.17c0,0.24188 -0.04031,0.68531 -0.9675,1.505c-0.92719,0.81969 -2.62031,1.76031 -4.8375,2.58c-4.44781,1.65281 -11.04562,2.795 -18.275,2.795c-7.22937,0 -13.82719,-1.14219 -18.275,-2.795c-2.21719,-0.81969 -3.91031,-1.76031 -4.8375,-2.58c-0.92719,-0.81969 -0.9675,-1.26312 -0.9675,-1.505zM6.88,129.43c1.06156,0.55094 2.21719,1.04813 3.44,1.505c5.53625,2.05594 12.73875,3.225 20.64,3.225c7.90125,0 15.10375,-1.16906 20.64,-3.225c1.22281,-0.45687 2.37844,-0.95406 3.44,-1.505v8.17c0,0.24188 -0.04031,0.68531 -0.9675,1.505c-0.92719,0.81969 -2.62031,1.76031 -4.8375,2.58c-4.44781,1.65281 -11.04562,2.795 -18.275,2.795c-7.22937,0 -13.82719,-1.14219 -18.275,-2.795c-2.21719,-0.81969 -3.91031,-1.76031 -4.8375,-2.58c-0.92719,-0.81969 -0.9675,-1.26312 -0.9675,-1.505zM61.92,129.43c1.06156,0.55094 2.21719,1.04813 3.44,1.505c5.53625,2.05594 12.73875,3.225 20.64,3.225c7.90125,0 15.10375,-1.16906 20.64,-3.225c1.22281,-0.45687 2.37844,-0.95406 3.44,-1.505v8.17c0,0.24188 -0.04031,0.68531 -0.9675,1.505c-0.92719,0.81969 -2.62031,1.76031 -4.8375,2.58c-4.44781,1.65281 -11.04562,2.795 -18.275,2.795c-7.22937,0 -13.82719,-1.14219 -18.275,-2.795c-2.21719,-0.81969 -3.91031,-1.76031 -4.8375,-2.58c-0.92719,-0.81969 -0.9675,-1.26312 -0.9675,-1.505zM116.96,129.43c1.06156,0.55094 2.21719,1.04813 3.44,1.505c5.53625,2.05594 12.73875,3.225 20.64,3.225c7.90125,0 15.10375,-1.16906 20.64,-3.225c1.22281,-0.45687 2.37844,-0.95406 3.44,-1.505v8.17c0,0.24188 -0.04031,0.68531 -0.9675,1.505c-0.92719,0.81969 -2.62031,1.76031 -4.8375,2.58c-4.44781,1.65281 -11.04562,2.795 -18.275,2.795c-7.22937,0 -13.82719,-1.14219 -18.275,-2.795c-2.21719,-0.81969 -3.91031,-1.76031 -4.8375,-2.58c-0.92719,-0.81969 -0.9675,-1.26312 -0.9675,-1.505zM6.88,146.63c1.06156,0.55094 2.21719,1.04813 3.44,1.505c5.53625,2.05594 12.73875,3.225 20.64,3.225c7.90125,0 15.10375,-1.16906 20.64,-3.225c1.22281,-0.45687 2.37844,-0.95406 3.44,-1.505v8.17c0,0.24188 -0.04031,0.68531 -0.9675,1.505c-0.92719,0.81969 -2.62031,1.76031 -4.8375,2.58c-4.44781,1.65281 -11.04562,2.795 -18.275,2.795c-7.22937,0 -13.82719,-1.14219 -18.275,-2.795c-2.21719,-0.81969 -3.91031,-1.76031 -4.8375,-2.58c-0.92719,-0.81969 -0.9675,-1.26312 -0.9675,-1.505zM61.92,146.63c1.06156,0.55094 2.21719,1.04813 3.44,1.505c5.53625,2.05594 12.73875,3.225 20.64,3.225c7.90125,0 15.10375,-1.16906 20.64,-3.225c1.22281,-0.45687 2.37844,-0.95406 3.44,-1.505v8.17c0,0.24188 -0.04031,0.68531 -0.9675,1.505c-0.92719,0.81969 -2.62031,1.76031 -4.8375,2.58c-4.44781,1.65281 -11.04562,2.795 -18.275,2.795c-7.22937,0 -13.82719,-1.14219 -18.275,-2.795c-2.21719,-0.81969 -3.91031,-1.76031 -4.8375,-2.58c-0.92719,-0.81969 -0.9675,-1.26312 -0.9675,-1.505zM116.96,146.63c1.06156,0.55094 2.21719,1.04813 3.44,1.505c5.53625,2.05594 12.73875,3.225 20.64,3.225c7.90125,0 15.10375,-1.16906 20.64,-3.225c1.22281,-0.45687 2.37844,-0.95406 3.44,-1.505v8.17c0,0.24188 -0.04031,0.68531 -0.9675,1.505c-0.92719,0.81969 -2.62031,1.76031 -4.8375,2.58c-4.44781,1.65281 -11.04562,2.795 -18.275,2.795c-7.22937,0 -13.82719,-1.14219 -18.275,-2.795c-2.21719,-0.81969 -3.91031,-1.76031 -4.8375,-2.58c-0.92719,-0.81969 -0.9675,-1.26312 -0.9675,-1.505z"></path></g></g></svg>
