<svg xmlns="http://www.w3.org/2000/svg" x="0px" y="0px"
width="64" height="64"
viewBox="0 0 172 172"
style=" fill:#000000;"><g fill="none" fill-rule="nonzero" stroke="none" stroke-width="1" stroke-linecap="butt" stroke-linejoin="miter" stroke-miterlimit="10" stroke-dasharray="" stroke-dashoffset="0" font-family="none" font-weight="none" font-size="none" text-anchor="none" style="mix-blend-mode: normal"><path d="M0,172v-172h172v172z" fill="none"></path><g fill="#8494a7"><path d="M39.92407,16.125c-4.10474,0 -7.78955,2.27808 -9.61621,5.9419l-12.76562,25.52075c-0.92383,1.85816 -1.41724,3.93677 -1.41724,6.00488v27.03247c0,3.2229 1.45923,6.08887 3.71631,8.0625c-2.25708,1.97363 -3.71631,4.8396 -3.71631,8.0625v16.125c0,3.2229 1.45923,6.08887 3.71631,8.0625c-2.25708,1.97363 -3.71631,4.8396 -3.71631,8.0625v16.125c0,5.9314 4.8186,10.75 10.75,10.75h118.25c5.9314,0 10.75,-4.8186 10.75,-10.75v-16.125c0,-3.2229 -1.45923,-6.08887 -3.71631,-8.0625c2.25708,-1.97363 3.71631,-4.8396 3.71631,-8.0625v-16.125c0,-3.2229 -1.45923,-6.08887 -3.71631,-8.0625c2.25708,-1.97363 3.71631,-4.8396 3.71631,-8.0625v-27.03247c0,-2.06811 -0.49341,-4.14673 -1.41724,-6.00488l-12.76562,-25.52075c-1.82666,-3.66382 -5.51147,-5.9419 -9.61621,-5.9419zM39.92407,21.5h92.15185c2.04712,0 3.89478,1.14429 4.80811,2.97095l12.76563,25.52075c0.5564,1.11279 0.85034,2.36206 0.85034,3.60083v0.15747h-129v-0.15747c0,-1.23877 0.29395,-2.48804 0.85034,-3.60083l12.75513,-25.52075c0.92383,-1.82666 2.76099,-2.97095 4.8186,-2.97095zM40.3125,26.875c-1.49072,0 -2.6875,1.19678 -2.6875,2.6875c0,1.49072 1.19678,2.6875 2.6875,2.6875h69.875c1.49072,0 2.6875,-1.19678 2.6875,-2.6875c0,-1.49072 -1.19678,-2.6875 -2.6875,-2.6875zM120.9375,26.875c-1.49072,0 -2.6875,1.19678 -2.6875,2.6875c0,1.49072 1.19678,2.6875 2.6875,2.6875h10.75c1.49072,0 2.6875,-1.19678 2.6875,-2.6875c0,-1.49072 -1.19678,-2.6875 -2.6875,-2.6875zM21.5,59.125h129v21.5c0,2.96045 -2.41455,5.375 -5.375,5.375h-118.25c-2.96045,0 -5.375,-2.41455 -5.375,-5.375zM131.6875,64.5c-4.44067,0 -8.0625,3.62183 -8.0625,8.0625c0,4.44067 3.62183,8.0625 8.0625,8.0625c4.44067,0 8.0625,-3.62183 8.0625,-8.0625c0,-4.44067 -3.62183,-8.0625 -8.0625,-8.0625zM34.9375,67.1875c-1.49072,0 -2.6875,1.19678 -2.6875,2.6875v5.375c0,1.49072 1.19678,2.6875 2.6875,2.6875c1.49072,0 2.6875,-1.19678 2.6875,-2.6875v-5.375c0,-1.49072 -1.19678,-2.6875 -2.6875,-2.6875zM48.375,67.1875c-1.49072,0 -2.6875,1.19678 -2.6875,2.6875v5.375c0,1.49072 1.19678,2.6875 2.6875,2.6875c1.49072,0 2.6875,-1.19678 2.6875,-2.6875v-5.375c0,-1.49072 -1.19678,-2.6875 -2.6875,-2.6875zM61.8125,67.1875c-1.49072,0 -2.6875,1.19678 -2.6875,2.6875v5.375c0,1.49072 1.19678,2.6875 2.6875,2.6875c1.49072,0 2.6875,-1.19678 2.6875,-2.6875v-5.375c0,-1.49072 -1.19678,-2.6875 -2.6875,-2.6875zM75.25,67.1875c-1.49072,0 -2.6875,1.19678 -2.6875,2.6875v5.375c0,1.49072 1.19678,2.6875 2.6875,2.6875c1.49072,0 2.6875,-1.19678 2.6875,-2.6875v-5.375c0,-1.49072 -1.19678,-2.6875 -2.6875,-2.6875zM88.6875,67.1875c-1.49072,0 -2.6875,1.19678 -2.6875,2.6875v5.375c0,1.49072 1.19678,2.6875 2.6875,2.6875c1.49072,0 2.6875,-1.19678 2.6875,-2.6875v-5.375c0,-1.49072 -1.19678,-2.6875 -2.6875,-2.6875zM131.6875,69.3186c1.79517,0 3.2439,1.45923 3.2439,3.2439c0,1.79517 -1.45923,3.2439 -3.2439,3.2439c-1.78467,0 -3.2439,-1.44873 -3.2439,-3.2439c0,-1.79517 1.44873,-3.2439 3.2439,-3.2439zM99.4375,69.875c-1.49072,0 -2.6875,1.19678 -2.6875,2.6875c0,1.49072 1.19678,2.6875 2.6875,2.6875h16.125c1.49072,0 2.6875,-1.19678 2.6875,-2.6875c0,-1.49072 -1.19678,-2.6875 -2.6875,-2.6875zM26.875,91.375h118.25c2.96045,0 5.375,2.41455 5.375,5.375v16.125c0,2.96045 -2.41455,5.375 -5.375,5.375h-118.25c-2.96045,0 -5.375,-2.41455 -5.375,-5.375v-16.125c0,-2.96045 2.41455,-5.375 5.375,-5.375zM131.6875,96.75c-4.44067,0 -8.0625,3.62183 -8.0625,8.0625c0,4.44067 3.62183,8.0625 8.0625,8.0625c4.44067,0 8.0625,-3.62183 8.0625,-8.0625c0,-4.44067 -3.62183,-8.0625 -8.0625,-8.0625zM34.9375,99.4375c-1.49072,0 -2.6875,1.19678 -2.6875,2.6875v5.375c0,1.49072 1.19678,2.6875 2.6875,2.6875c1.49072,0 2.6875,-1.19678 2.6875,-2.6875v-5.375c0,-1.49072 -1.19678,-2.6875 -2.6875,-2.6875zM48.375,99.4375c-1.49072,0 -2.6875,1.19678 -2.6875,2.6875v5.375c0,1.49072 1.19678,2.6875 2.6875,2.6875c1.49072,0 2.6875,-1.19678 2.6875,-2.6875v-5.375c0,-1.49072 -1.19678,-2.6875 -2.6875,-2.6875zM61.8125,99.4375c-1.49072,0 -2.6875,1.19678 -2.6875,2.6875v5.375c0,1.49072 1.19678,2.6875 2.6875,2.6875c1.49072,0 2.6875,-1.19678 2.6875,-2.6875v-5.375c0,-1.49072 -1.19678,-2.6875 -2.6875,-2.6875zM75.25,99.4375c-1.49072,0 -2.6875,1.19678 -2.6875,2.6875v5.375c0,1.49072 1.19678,2.6875 2.6875,2.6875c1.49072,0 2.6875,-1.19678 2.6875,-2.6875v-5.375c0,-1.49072 -1.19678,-2.6875 -2.6875,-2.6875zM88.6875,99.4375c-1.49072,0 -2.6875,1.19678 -2.6875,2.6875v5.375c0,1.49072 1.19678,2.6875 2.6875,2.6875c1.49072,0 2.6875,-1.19678 2.6875,-2.6875v-5.375c0,-1.49072 -1.19678,-2.6875 -2.6875,-2.6875zM131.6875,101.5686c1.78467,0 3.2439,1.45923 3.2439,3.2439c0,1.79517 -1.44873,3.2439 -3.2439,3.2439c-1.79517,0 -3.2439,-1.45923 -3.2439,-3.2439c0,-1.79517 1.45923,-3.2439 3.2439,-3.2439zM99.4375,102.125c-1.49072,0 -2.6875,1.19678 -2.6875,2.6875c0,1.49072 1.19678,2.6875 2.6875,2.6875h16.125c1.49072,0 2.6875,-1.19678 2.6875,-2.6875c0,-1.49072 -1.19678,-2.6875 -2.6875,-2.6875zM26.875,123.625h118.25c2.96045,0 5.375,2.41455 5.375,5.375v16.125c0,2.96045 -2.41455,5.375 -5.375,5.375h-118.25c-2.96045,0 -5.375,-2.41455 -5.375,-5.375v-16.125c0,-2.96045 2.41455,-5.375 5.375,-5.375zM131.6875,129c-4.44067,0 -8.0625,3.62183 -8.0625,8.0625c0,4.44067 3.62183,8.0625 8.0625,8.0625c4.44067,0 8.0625,-3.62183 8.0625,-8.0625c0,-4.44067 -3.62183,-8.0625 -8.0625,-8.0625zM34.9375,131.6875c-1.49072,0 -2.6875,1.19678 -2.6875,2.6875v5.375c0,1.49072 1.19678,2.6875 2.6875,2.6875c1.49072,0 2.6875,-1.19678 2.6875,-2.6875v-5.375c0,-1.49072 -1.19678,-2.6875 -2.6875,-2.6875zM48.375,131.6875c-1.49072,0 -2.6875,1.19678 -2.6875,2.6875v5.375c0,1.49072 1.19678,2.6875 2.6875,2.6875c1.49072,0 2.6875,-1.19678 2.6875,-2.6875v-5.375c0,-1.49072 -1.19678,-2.6875 -2.6875,-2.6875zM61.8125,131.6875c-1.49072,0 -2.6875,1.19678 -2.6875,2.6875v5.375c0,1.49072 1.19678,2.6875 2.6875,2.6875c1.49072,0 2.6875,-1.19678 2.6875,-2.6875v-5.375c0,-1.49072 -1.19678,-2.6875 -2.6875,-2.6875zM75.25,131.6875c-1.49072,0 -2.6875,1.19678 -2.6875,2.6875v5.375c0,1.49072 1.19678,2.6875 2.6875,2.6875c1.49072,0 2.6875,-1.19678 2.6875,-2.6875v-5.375c0,-1.49072 -1.19678,-2.6875 -2.6875,-2.6875zM88.6875,131.6875c-1.49072,0 -2.6875,1.19678 -2.6875,2.6875v5.375c0,1.49072 1.19678,2.6875 2.6875,2.6875c1.49072,0 2.6875,-1.19678 2.6875,-2.6875v-5.375c0,-1.49072 -1.19678,-2.6875 -2.6875,-2.6875zM131.6875,133.70313c1.85815,0 3.35938,1.50122 3.35938,3.35938c0,1.85815 -1.50122,3.35938 -3.35937,3.35938c-1.85815,0 -3.35937,-1.50122 -3.35937,-3.35937c0,-1.85815 1.50122,-3.35937 3.35938,-3.35937zM99.4375,134.375c-1.49072,0 -2.6875,1.19678 -2.6875,2.6875c0,1.49072 1.19678,2.6875 2.6875,2.6875h16.125c1.49072,0 2.6875,-1.19678 2.6875,-2.6875c0,-1.49072 -1.19678,-2.6875 -2.6875,-2.6875z"></path></g></g></svg>
