<svg xmlns="http://www.w3.org/2000/svg" x="0px" y="0px"
width="100" height="100"
viewBox="0 0 172 172"
style=" fill:#000000;"><g fill="none" fill-rule="nonzero" stroke="none" stroke-width="1" stroke-linecap="butt" stroke-linejoin="miter" stroke-miterlimit="10" stroke-dasharray="" stroke-dashoffset="0" font-family="none" font-weight="none" font-size="none" text-anchor="none" style="mix-blend-mode: normal"><path d="M0,172v-172h172v172z" fill="none"></path><g fill="#8494a7"><path d="M99.33336,27.1975c-0.62097,0.08941 -1.16656,0.5199 -1.3807,1.14555c-1.9522,5.67944 -5.63201,8.75542 -10.93477,9.14758c-6.42248,0.46612 -10.72603,-2.5123 -13.18219,-9.12742c-0.30272,-0.81872 -1.16586,-1.28312 -2.01898,-1.075c-6.364,1.5566 -12.32203,4.05646 -17.7039,7.42422c-0.7396,0.46096 -1.0166,1.40255 -0.64164,2.19031c2.78124,5.87552 2.15,10.75347 -1.935,14.90555c-4.14004,4.21056 -9.04653,4.92027 -15.00633,2.17687c-0.79292,-0.36808 -1.73287,-0.07624 -2.18695,0.66852c-3.35228,5.51604 -5.77818,11.49169 -7.20922,17.75765c-0.19264,0.8428 0.26816,1.69791 1.08172,1.99547c5.95808,2.1844 8.92272,5.99987 9.05687,11.66039c0.14104,5.89616 -2.7707,9.91983 -8.89562,12.30203c-0.80152,0.31304 -1.24773,1.16963 -1.04477,2.00555c1.50328,6.19888 4.00134,12.11665 7.42758,17.58969c0.45752,0.72928 1.3792,1.00416 2.16008,0.65844c5.76888,-2.56796 10.54564,-1.8949 14.60656,2.05594c4.16068,4.04716 4.94436,8.86738 2.39187,14.73086c-0.344,0.78948 -0.05249,1.70952 0.68195,2.15672c5.504,3.3454 11.45383,5.77294 17.68711,7.21258c0.10664,0.02408 0.21586,0.03359 0.3225,0.03359c0.68112,0 1.36689,-0.4594 1.66961,-1.06828c0.08944,-0.16856 0.15684,-0.30616 0.20156,-0.43c1.96424,-5.12044 6.32149,-8.34152 11.37485,-8.40516c0.0602,-0.00172 0.11957,0 0.17805,0c5.332,0 9.72281,3.02005 11.76789,8.10953c0.38528,0.95288 1.24794,1.98816 3.11414,1.51172c5.6674,-1.43276 11.08097,-3.67236 16.09477,-6.65828c0.21328,-0.12728 0.42229,-0.26577 0.60805,-0.39305l0.18813,-0.12766c0.70176,-0.46096 0.96876,-1.36608 0.6282,-2.1332c-2.3736,-5.35092 -1.90095,-9.85224 1.44789,-13.75664c4.0936,-4.77128 9.16704,-5.77751 15.50352,-3.08055c0.77572,0.3354 1.68764,0.04717 2.13656,-0.67523c3.39356,-5.4868 5.8612,-11.41432 7.33352,-17.6132c0.19952,-0.83936 -0.25152,-1.69431 -1.0582,-2.00219c-5.88928,-2.25492 -8.81062,-6.07359 -8.92586,-11.67047c-0.12384,-5.89444 2.7943,-9.91163 8.91578,-12.28524c0.7224,-0.28036 1.16584,-1.00827 1.08844,-1.77711c-0.41968,-4.14864 -5.0636,-15.3371 -7.52836,-18.13726c-0.5074,-0.57448 -1.3327,-0.74664 -2.01898,-0.42328c-5.8136,2.72448 -10.66105,2.05634 -14.81485,-2.04586c-4.17444,-4.12284 -4.86513,-9.03261 -2.10969,-15.01305c0.36464,-0.7912 0.07952,-1.72607 -0.6618,-2.18359c-5.53324,-3.40732 -11.51365,-5.8734 -17.77445,-7.3268c-0.215,-0.05074 -0.42793,-0.06004 -0.63492,-0.03023zM100.64688,30.93313c4.89856,1.27796 9.60835,3.22024 14.02875,5.7882c-2.58688,6.67876 -1.41852,12.69559 3.41984,17.47547c4.83148,4.77128 10.82469,5.89143 17.38477,3.27875c1.93844,3.06676 4.90141,10.26103 5.75797,13.99515c-6.56352,2.98592 -9.94713,8.15189 -9.80265,15.01641c0.13588,6.58072 3.40447,11.35643 9.72203,14.22023c-1.29516,4.87276 -3.24868,9.555 -5.8218,13.9582c-7.10016,-2.54044 -13.31796,-0.97441 -18.06,4.55195c-3.88204,4.52704 -4.75145,10.03394 -2.54641,16.00406c-4.36192,2.53528 -9.04239,4.47716 -14.03211,5.805c-2.73308,-6.08364 -8.26527,-9.5969 -14.87867,-9.56078c-6.1404,0.0774 -11.45985,3.71821 -14.13961,9.62125c-4.90544,-1.2642 -9.61671,-3.18393 -14.03883,-5.72438c2.3736,-6.5618 1.10217,-12.46269 -3.71211,-17.14625c-4.7042,-4.5752 -10.55868,-5.70838 -17.0018,-3.30898c-2.5972,-4.38772 -4.57146,-9.06373 -5.88898,-13.93133c6.49988,-3.0014 9.83668,-8.15597 9.675,-14.98953c-0.15652,-6.55664 -3.56236,-11.45243 -9.87992,-14.23367c1.25732,-4.9106 3.16738,-9.62023 5.6975,-14.03547c6.66156,2.56796 12.67355,1.37221 17.46203,-3.49711c4.73344,-4.81256 5.82768,-10.78913 3.21156,-17.36125c4.32064,-2.54216 9.01748,-4.51027 13.99516,-5.85875c3.1132,7.0434 8.65109,10.48439 16.07461,9.92023c6.22296,-0.45752 10.81947,-3.90206 13.37367,-9.98742zM84.02805,48.02563c-1.17261,0.05117 -2.33955,0.15668 -3.49711,0.31578c-0.46784,0.06536 -0.79262,0.49466 -0.72898,0.96078c0.05848,0.42656 0.42352,0.73906 0.8432,0.73906c0.03956,0 0.0763,-0.00156 0.11758,-0.00672c2.2102,-0.301 4.46931,-0.40063 6.70531,-0.29227c0.53664,0.0602 0.87123,-0.34513 0.89359,-0.81297c0.02236,-0.473 -0.34005,-0.87124 -0.80961,-0.8936c-1.17304,-0.05762 -2.35137,-0.06125 -3.52398,-0.01008zM76.97672,49.18797c-0.11008,-0.01672 -0.22612,-0.01201 -0.34265,0.0168c-12.29112,3.12696 -22.19555,12.13108 -26.48867,24.08336c-0.15996,0.44376 0.07022,0.93184 0.51398,1.0918c0.09632,0.03268 0.19259,0.05039 0.28891,0.05039c0.34916,0 0.68069,-0.21694 0.80625,-0.56438c1.2705,-3.53663 3.05742,-6.7989 5.26414,-9.71195l3.59117,5.32125c-0.24583,0.37561 -0.51165,0.73369 -0.74242,1.12203c-4.1538,6.99008 -5.33466,15.17943 -3.32914,23.05875c0.46359,1.82176 1.10031,3.56793 1.86781,5.24063l-6.32906,0.32586c-0.52142,-1.32657 -0.97082,-2.68938 -1.32695,-4.09172c-0.11524,-0.45408 -0.57193,-0.73681 -1.03805,-0.61813c-0.4558,0.11696 -0.73001,0.58053 -0.61477,1.03805c1.24956,4.92001 3.50227,9.41629 6.55414,13.3132c0.03068,0.04893 0.0684,0.09 0.1075,0.13102c4.79345,6.06232 11.53814,10.65221 19.5482,13.03101c3.43976,1.02276 6.90292,1.55481 10.32336,1.66625c0.01023,0.00036 0.02001,0.00672 0.03023,0.00672c0.00719,0 0.01298,-0.00654 0.02016,-0.00672c0.41099,0.01287 0.82338,0.04703 1.23289,0.04703c9.331,0 18.22321,-3.33704 25.09117,-9.66492c0.34744,-0.31992 0.37031,-0.8603 0.05039,-1.20602c-0.31992,-0.34744 -0.86202,-0.37031 -1.20602,-0.05039c-3.60851,3.3251 -7.80929,5.77306 -12.34235,7.31l0.49719,-6.19133c0.00702,-0.08328 -0.01077,-0.1606 -0.02687,-0.23852c5.48057,-2.56001 10.07156,-6.68723 13.22922,-11.99969c4.1538,-6.99008 5.33974,-15.17943 3.3325,-23.05875c-0.42979,-1.68894 -1.02167,-3.30597 -1.71328,-4.86773l6.20477,-0.66852c0.50526,1.31956 0.94303,2.67208 1.29672,4.06148c0.09632,0.387 0.44457,0.64164 0.82641,0.64164c0.0688,0 0.13776,-0.00632 0.20828,-0.02352c0.4558,-0.11696 0.73001,-0.58053 0.61477,-1.03805c-3.16308,-12.43044 -12.2865,-22.37841 -24.41594,-26.60961c-0.44032,-0.1548 -0.93364,0.08022 -1.08844,0.52742c-0.1548,0.44548 0.08194,0.93192 0.52742,1.08844c3.48623,1.21573 6.70423,2.93186 9.59438,5.0525l-8.23383,1.99211c-6.4695,-3.16382 -13.77432,-3.94483 -20.83148,-2.14664c-1.78691,0.45472 -3.49607,1.08029 -5.13984,1.8275l-0.67187,-6.2182c1.40524,-0.55157 2.85253,-1.02312 4.33695,-1.40086c0.4558,-0.11696 0.73001,-0.57717 0.61477,-1.03469c-0.08643,-0.34185 -0.36179,-0.58477 -0.69203,-0.63492zM71.07766,52.95719l0.66852,6.20477c0.00453,0.04281 0.0265,0.07716 0.03695,0.11758c-1.60545,0.84804 -3.12787,1.8255 -4.54859,2.94281l-1.81406,-6.08047c1.7787,-1.222 3.66963,-2.28976 5.65719,-3.18469zM63.95914,57.2068l1.84766,6.19469c-1.52952,1.36341 -2.92908,2.88286 -4.16898,4.55195l-3.50047,-5.18687c1.73051,-2.06598 3.68301,-3.92796 5.8218,-5.55977zM86.03359,57.41172c12.82432,0 24.5451,8.66353 27.84922,21.64781c1.89372,7.43728 0.7755,15.16575 -3.14438,21.76539c-3.91988,6.59792 -10.17592,11.27331 -17.6132,13.16875c-7.44244,1.892 -15.16747,0.7755 -21.76539,-3.14437c-6.59792,-3.91988 -11.27331,-10.17592 -13.16875,-17.6132c-1.89372,-7.439 -0.77551,-15.16747 3.14437,-21.76539c3.91988,-6.59792 10.17592,-11.27331 17.6132,-13.16875c2.37016,-0.60372 4.744,-0.89023 7.08492,-0.89023zM109.31406,58.14742c1.90693,1.58373 3.64783,3.35395 5.19023,5.28765l-6.72211,1.1086c-0.08761,0.0146 -0.16318,0.05273 -0.23851,0.0907c-1.76051,-1.75413 -3.72632,-3.32348 -5.91586,-4.62922zM115.6532,64.94344c1.44754,2.02334 2.67761,4.21203 3.69195,6.51719l-6.30219,0.68195c-1.12773,-2.18462 -2.50608,-4.21731 -4.12195,-6.05695l6.59109,-1.0918c0.05114,-0.00852 0.09391,-0.03359 0.14109,-0.05039zM86.13438,75.10891c-2.9498,-0.0086 -5.72763,1.0839 -7.81055,3.14102c-2.07088,2.04164 -3.21796,4.77421 -3.23172,7.68961c-0.02752,6.0114 4.85733,10.92232 10.89109,10.95156h0.00672c5.95292,-0.03268 10.74941,-4.67579 10.91797,-10.57195c0.08256,-2.9584 -1.00015,-5.75517 -3.04695,-7.88109c-2.03992,-2.12076 -4.78536,-3.30162 -7.72656,-3.32914zM86.02352,76.82891h0.09406c2.47508,0.02408 4.78883,1.01808 6.50711,2.80172c1.72344,1.79052 2.63372,4.14757 2.5632,6.63813c-0.14104,4.96392 -4.18745,8.87138 -9.20469,8.90234c-5.08088,-0.0258 -9.19517,-4.16288 -9.17109,-9.22484c0.01204,-2.45444 0.97365,-4.7536 2.71773,-6.47016c1.73204,-1.7114 4.03579,-2.64719 6.49367,-2.64719zM122.23422,93.57203c-0.32782,0.05716 -0.5999,0.306 -0.67859,0.65172c-0.4988,2.18096 -1.20365,4.32749 -2.09289,6.37945c-0.18748,0.43172 0.01172,0.93627 0.44344,1.12203c0.11008,0.04816 0.22578,0.07055 0.3393,0.07055c0.32852,0 0.64169,-0.18899 0.78273,-0.51062c0.93052,-2.14828 1.66915,-4.396 2.19031,-6.67844c0.10664,-0.45924 -0.18068,-0.91969 -0.64164,-1.02461c-0.11567,-0.02709 -0.23338,-0.02913 -0.34266,-0.01008zM59.25266,100.55953c0.971,1.81241 2.1196,3.51107 3.43328,5.08273l-5.99648,1.78719c-1.53767,-2.0204 -2.834,-4.21171 -3.89352,-6.53398zM118.83117,103.17313c-0.32944,-0.03233 -0.6662,0.12919 -0.83649,0.44008c-0.75336,1.37944 -1.59785,2.72018 -2.50945,3.9775c-0.2752,0.38184 -0.19036,0.9123 0.19148,1.18922c0.15136,0.11008 0.32511,0.16461 0.50055,0.16461c0.26316,0 0.52175,-0.12397 0.69203,-0.35273c0.95116,-1.31924 1.83591,-2.71747 2.62367,-4.16227c0.22532,-0.4128 0.07186,-0.92858 -0.34265,-1.15563c-0.10148,-0.05504 -0.20933,-0.09 -0.31914,-0.10078zM63.92219,107.0532c1.67535,1.76754 3.57916,3.3281 5.67399,4.67289l-5.56649,2.85883c-2.29584,-1.6775 -4.36842,-3.59267 -6.17453,-5.72102zM71.24898,112.73727c2.21721,1.23387 4.54249,2.18555 6.93711,2.82859l-4.16227,3.98086c-0.06477,0.06152 -0.10684,0.13418 -0.14781,0.20828c-2.96658,-1.04569 -5.72881,-2.41898 -8.25398,-4.0682l5.41531,-2.78156c0.08351,-0.04278 0.14928,-0.10449 0.21164,-0.16797zM97.25391,114.42031l-0.50391,6.26187c-3.11268,0.87638 -6.36439,1.3193 -9.675,1.33367l2.94281,-5.47914c0.03867,-0.07225 0.05087,-0.14866 0.06719,-0.22508c1.1565,-0.15744 2.31258,-0.37274 3.46016,-0.66516c1.27504,-0.32446 2.50451,-0.75117 3.70875,-1.22617zM80.04719,116.00594c1.95214,0.39326 3.93787,0.59461 5.93602,0.59461c0.70045,0 1.40429,-0.0318 2.10633,-0.08062l-2.9361,5.46234c-3.1017,-0.14515 -6.24211,-0.66901 -9.35922,-1.5957c-0.04546,-0.01351 -0.089,-0.03002 -0.13438,-0.04367l4.18242,-4.00102c0.10163,-0.09652 0.16191,-0.21236 0.20492,-0.33594z"></path></g></g></svg>
