<svg xmlns="http://www.w3.org/2000/svg" x="0px" y="0px"
width="48" height="48"
viewBox="0 0 172 172"
style=" fill:#000000;"><g fill="none" fill-rule="nonzero" stroke="none" stroke-width="1" stroke-linecap="butt" stroke-linejoin="miter" stroke-miterlimit="10" stroke-dasharray="" stroke-dashoffset="0" font-family="none" font-weight="none" font-size="none" text-anchor="none" style="mix-blend-mode: normal"><path d="M0,172v-172h172v172z" fill="none"></path><g fill="#8494a7"><path d="M37.84,10.32c-1.89978,0.00019 -3.43981,1.54022 -3.44,3.44v13.76h-3.44c-1.89978,0.00019 -3.43981,1.54022 -3.44,3.44v13.76h-3.44c-1.89978,0.00019 -3.43981,1.54022 -3.44,3.44v51.6h-6.88c-1.89978,0.00019 -3.43981,1.54022 -3.44,3.44v55.04c0.00019,1.89978 1.54022,3.43981 3.44,3.44h144.48c1.89978,-0.00019 3.43981,-1.54022 3.44,-3.44v-55.04c-0.00019,-1.89978 -1.54022,-3.43981 -3.44,-3.44h-6.88v-51.6c-0.00019,-1.89978 -1.54022,-3.43981 -3.44,-3.44h-3.44v-13.76c-0.00019,-1.89978 -1.54022,-3.43981 -3.44,-3.44h-3.44v-13.76c-0.00019,-1.89978 -1.54022,-3.43981 -3.44,-3.44zM41.28,17.2h89.44v10.32h-89.44zM34.4,34.4h2.86219c0.37149,0.0614 0.75054,0.0614 1.12203,0h95.19797c0.37149,0.0614 0.75054,0.0614 1.12203,0h2.89578v10.32h-103.2zM27.52,51.6h2.86219c0.37149,0.0614 0.75054,0.0614 1.12203,0h108.95797c0.37149,0.0614 0.75054,0.0614 1.12203,0h2.89578v48.16h-37.84c-1.89978,0.00019 -3.43981,1.54022 -3.44,3.44c0,9.54141 -7.65859,17.2 -17.2,17.2c-9.54141,0 -17.2,-7.65859 -17.2,-17.2c-0.00019,-1.89978 -1.54022,-3.43981 -3.44,-3.44h-37.84zM17.2,106.64h45.41875c1.74184,11.56922 11.34084,20.64 23.38125,20.64c12.04041,0 21.63941,-9.07078 23.38125,-20.64h45.41875v48.16h-137.6z"></path></g></g></svg>
