<svg xmlns="http://www.w3.org/2000/svg" x="0px" y="0px"
width="64" height="64"
viewBox="0 0 172 172"
style=" fill:#000000;"><g fill="none" fill-rule="nonzero" stroke="none" stroke-width="1" stroke-linecap="butt" stroke-linejoin="miter" stroke-miterlimit="10" stroke-dasharray="" stroke-dashoffset="0" font-family="none" font-weight="none" font-size="none" text-anchor="none" style="mix-blend-mode: normal"><path d="M0,172v-172h172v172z" fill="none"></path><g fill="#8494a7"><path d="M13.4375,5.375c-4.43017,0 -8.0625,3.63233 -8.0625,8.0625v86c0,4.43018 3.63233,8.0625 8.0625,8.0625h34.9375v51.0625c0,4.43018 3.63233,8.0625 8.0625,8.0625h102.125c4.43018,0 8.0625,-3.63232 8.0625,-8.0625v-86c0,-4.43017 -3.63232,-8.0625 -8.0625,-8.0625h-34.9375v-51.0625c0,-4.43017 -3.63232,-8.0625 -8.0625,-8.0625zM13.4375,10.75h102.125c1.48022,0 2.6875,1.20728 2.6875,2.6875v51.0625h-10.75v-13.4375c0,-1.49072 -1.19678,-2.6875 -2.6875,-2.6875h-32.25c-1.49072,0 -2.6875,1.19678 -2.6875,2.6875v13.4375h-10.75v-13.4375c0,-1.49072 -1.19678,-2.6875 -2.6875,-2.6875h-32.25c-1.49072,0 -2.6875,1.19678 -2.6875,2.6875v37.625c0,1.49072 1.19678,2.6875 2.6875,2.6875h24.1875v10.75h-34.9375c-1.48022,0 -2.6875,-1.20728 -2.6875,-2.6875v-61.8125h77.9375c1.49072,0 2.6875,-1.19678 2.6875,-2.6875c0,-1.49072 -1.19678,-2.6875 -2.6875,-2.6875h-77.9375v-18.8125c0,-1.48022 1.20728,-2.6875 2.6875,-2.6875zM16.125,16.125c-1.49072,0 -2.6875,1.19678 -2.6875,2.6875v5.375c0,1.49072 1.19678,2.6875 2.6875,2.6875c1.49072,0 2.6875,-1.19678 2.6875,-2.6875v-5.375c0,-1.49072 -1.19678,-2.6875 -2.6875,-2.6875zM29.5625,16.125c-1.49072,0 -2.6875,1.19678 -2.6875,2.6875v5.375c0,1.49072 1.19678,2.6875 2.6875,2.6875c1.49072,0 2.6875,-1.19678 2.6875,-2.6875v-5.375c0,-1.49072 -1.19678,-2.6875 -2.6875,-2.6875zM43,16.125c-1.49072,0 -2.6875,1.19678 -2.6875,2.6875v5.375c0,1.49072 1.19678,2.6875 2.6875,2.6875c1.49072,0 2.6875,-1.19678 2.6875,-2.6875v-5.375c0,-1.49072 -1.19678,-2.6875 -2.6875,-2.6875zM56.4375,16.125c-1.49072,0 -2.6875,1.19678 -2.6875,2.6875v5.375c0,1.49072 1.19678,2.6875 2.6875,2.6875c1.49072,0 2.6875,-1.19678 2.6875,-2.6875v-5.375c0,-1.49072 -1.19678,-2.6875 -2.6875,-2.6875zM69.875,16.125c-1.49072,0 -2.6875,1.19678 -2.6875,2.6875v5.375c0,1.49072 1.19678,2.6875 2.6875,2.6875c1.49072,0 2.6875,-1.19678 2.6875,-2.6875v-5.375c0,-1.49072 -1.19678,-2.6875 -2.6875,-2.6875zM83.3125,16.125c-1.49072,0 -2.6875,1.19678 -2.6875,2.6875v5.375c0,1.49072 1.19678,2.6875 2.6875,2.6875c1.49072,0 2.6875,-1.19678 2.6875,-2.6875v-5.375c0,-1.49072 -1.19678,-2.6875 -2.6875,-2.6875zM96.75,16.125c-1.49072,0 -2.6875,1.19678 -2.6875,2.6875v5.375c0,1.49072 1.19678,2.6875 2.6875,2.6875c1.49072,0 2.6875,-1.19678 2.6875,-2.6875v-5.375c0,-1.49072 -1.19678,-2.6875 -2.6875,-2.6875zM110.1875,16.125c-1.49072,0 -2.6875,1.19678 -2.6875,2.6875v5.375c0,1.49072 1.19678,2.6875 2.6875,2.6875c1.49072,0 2.6875,-1.19678 2.6875,-2.6875v-5.375c0,-1.49072 -1.19678,-2.6875 -2.6875,-2.6875zM99.4375,32.25c-1.49072,0 -2.6875,1.19678 -2.6875,2.6875c0,1.49072 1.19678,2.6875 2.6875,2.6875h10.75c1.49072,0 2.6875,-1.19678 2.6875,-2.6875c0,-1.49072 -1.19678,-2.6875 -2.6875,-2.6875zM26.875,53.75h26.875v11.25391c-3.11792,1.11279 -5.375,4.07324 -5.375,7.55859v13.4375h-21.5zM75.25,53.75h26.875v10.75h-26.875zM56.4375,69.875h102.125c1.48022,0 2.6875,1.20728 2.6875,2.6875v86c0,1.48022 -1.20728,2.6875 -2.6875,2.6875h-102.125c-1.48022,0 -2.6875,-1.20728 -2.6875,-2.6875v-61.8125h77.9375c1.49072,0 2.6875,-1.19678 2.6875,-2.6875c0,-1.49072 -1.19678,-2.6875 -2.6875,-2.6875h-77.9375v-18.8125c0,-1.48022 1.20728,-2.6875 2.6875,-2.6875zM59.125,75.25c-1.49072,0 -2.6875,1.19678 -2.6875,2.6875v5.375c0,1.49072 1.19678,2.6875 2.6875,2.6875c1.49072,0 2.6875,-1.19678 2.6875,-2.6875v-5.375c0,-1.49072 -1.19678,-2.6875 -2.6875,-2.6875zM72.5625,75.25c-1.49072,0 -2.6875,1.19678 -2.6875,2.6875v5.375c0,1.49072 1.19678,2.6875 2.6875,2.6875c1.49072,0 2.6875,-1.19678 2.6875,-2.6875v-5.375c0,-1.49072 -1.19678,-2.6875 -2.6875,-2.6875zM86,75.25c-1.49072,0 -2.6875,1.19678 -2.6875,2.6875v5.375c0,1.49072 1.19678,2.6875 2.6875,2.6875c1.49072,0 2.6875,-1.19678 2.6875,-2.6875v-5.375c0,-1.49072 -1.19678,-2.6875 -2.6875,-2.6875zM99.4375,75.25c-1.49072,0 -2.6875,1.19678 -2.6875,2.6875v5.375c0,1.49072 1.19678,2.6875 2.6875,2.6875c1.49072,0 2.6875,-1.19678 2.6875,-2.6875v-5.375c0,-1.49072 -1.19678,-2.6875 -2.6875,-2.6875zM112.875,75.25c-1.49072,0 -2.6875,1.19678 -2.6875,2.6875v5.375c0,1.49072 1.19678,2.6875 2.6875,2.6875c1.49072,0 2.6875,-1.19678 2.6875,-2.6875v-5.375c0,-1.49072 -1.19678,-2.6875 -2.6875,-2.6875zM126.3125,75.25c-1.49072,0 -2.6875,1.19678 -2.6875,2.6875v5.375c0,1.49072 1.19678,2.6875 2.6875,2.6875c1.49072,0 2.6875,-1.19678 2.6875,-2.6875v-5.375c0,-1.49072 -1.19678,-2.6875 -2.6875,-2.6875zM139.75,75.25c-1.49072,0 -2.6875,1.19678 -2.6875,2.6875v5.375c0,1.49072 1.19678,2.6875 2.6875,2.6875c1.49072,0 2.6875,-1.19678 2.6875,-2.6875v-5.375c0,-1.49072 -1.19678,-2.6875 -2.6875,-2.6875zM153.1875,75.25c-1.49072,0 -2.6875,1.19678 -2.6875,2.6875v5.375c0,1.49072 1.19678,2.6875 2.6875,2.6875c1.49072,0 2.6875,-1.19678 2.6875,-2.6875v-5.375c0,-1.49072 -1.19678,-2.6875 -2.6875,-2.6875zM142.4375,91.375c-1.49072,0 -2.6875,1.19678 -2.6875,2.6875c0,1.49072 1.19678,2.6875 2.6875,2.6875h10.75c1.49072,0 2.6875,-1.19678 2.6875,-2.6875c0,-1.49072 -1.19678,-2.6875 -2.6875,-2.6875zM67.1875,107.5c-1.49072,0 -2.6875,1.19678 -2.6875,2.6875v37.625c0,1.49072 1.19678,2.6875 2.6875,2.6875h32.25c1.49072,0 2.6875,-1.19678 2.6875,-2.6875v-37.625c0,-1.49072 -1.19678,-2.6875 -2.6875,-2.6875zM115.5625,107.5c-1.49072,0 -2.6875,1.19678 -2.6875,2.6875v37.625c0,1.49072 1.19678,2.6875 2.6875,2.6875h32.25c1.49072,0 2.6875,-1.19678 2.6875,-2.6875v-37.625c0,-1.49072 -1.19678,-2.6875 -2.6875,-2.6875zM69.875,112.875h26.875v32.25h-26.875zM118.25,112.875h26.875v32.25h-26.875z"></path></g></g></svg>
