<svg xmlns="http://www.w3.org/2000/svg" x="0px" y="0px"
width="50" height="50"
viewBox="0 0 172 172"
style=" fill:#000000;"><g fill="none" fill-rule="nonzero" stroke="none" stroke-width="1" stroke-linecap="butt" stroke-linejoin="miter" stroke-miterlimit="10" stroke-dasharray="" stroke-dashoffset="0" font-family="none" font-weight="none" font-size="none" text-anchor="none" style="mix-blend-mode: normal"><path d="M0,172v-172h172v172z" fill="none"></path><g fill="#8494a7"><path d="M41.28,0c-3.7625,0 -6.88,3.1175 -6.88,6.88v6.88h-20.64c-1.80062,0 -3.62812,0.65844 -4.91812,1.96188c-1.30344,1.29 -1.96188,3.1175 -1.96188,4.91812v137.6c0,1.80063 0.65844,3.62813 1.96188,4.93156c1.29,1.29 3.1175,1.94844 4.91812,1.94844h144.48c1.80063,0 3.62813,-0.65844 4.93156,-1.94844c1.29,-1.30344 1.94844,-3.13094 1.94844,-4.93156v-137.6c0,-1.80062 -0.65844,-3.62812 -1.94844,-4.91812c-1.30344,-1.30344 -3.13094,-1.96188 -4.93156,-1.96188h-20.64v-6.88c0,-3.7625 -3.1175,-6.88 -6.88,-6.88h-6.88c-3.7625,0 -6.88,3.1175 -6.88,6.88v6.88h-61.92v-6.88c0,-3.7625 -3.1175,-6.88 -6.88,-6.88zM41.28,6.88h6.88v20.64h-6.88zM123.84,6.88h6.88v20.64h-6.88zM13.76,20.64h20.64v6.88c0,3.7625 3.1175,6.88 6.88,6.88h6.88c3.7625,0 6.88,-3.1175 6.88,-6.88v-6.88h61.92v6.88c0,3.7625 3.1175,6.88 6.88,6.88h6.88c3.7625,0 6.88,-3.1175 6.88,-6.88v-6.88h20.64v24.08h-144.48zM13.76,51.6h144.48v106.64h-144.48zM103.845,99.76c-4.11187,0 -7.525,3.41313 -7.525,7.525v26.23c0,4.11188 3.41313,7.525 7.525,7.525h26.23c4.11188,0 7.525,-3.41312 7.525,-7.525v-26.23c0,-4.11187 -3.41312,-7.525 -7.525,-7.525zM103.845,106.64h26.23c0.40313,0 0.645,0.24188 0.645,0.645v26.23c0,0.38969 -0.24187,0.645 -0.645,0.645h-26.23c-0.38969,0 -0.645,-0.25531 -0.645,-0.645v-26.23c0,-0.40312 0.25531,-0.645 0.645,-0.645z"></path></g></g></svg>
