<svg xmlns="http://www.w3.org/2000/svg" x="0px" y="0px"
width="50" height="50"
viewBox="0 0 172 172"
style=" fill:#000000;"><g fill="none" fill-rule="nonzero" stroke="none" stroke-width="1" stroke-linecap="butt" stroke-linejoin="miter" stroke-miterlimit="10" stroke-dasharray="" stroke-dashoffset="0" font-family="none" font-weight="none" font-size="none" text-anchor="none" style="mix-blend-mode: normal"><path d="M0,172v-172h172v172z" fill="none"></path><g fill="#8494a7"><path d="M20.64,20.64v41.28c-0.01344,1.23625 0.63156,2.39188 1.70656,3.02344c1.075,0.61813 2.39187,0.61813 3.46687,0c1.075,-0.63156 1.72,-1.78719 1.70656,-3.02344v-34.4h34.4c1.23625,0.01344 2.39188,-0.63156 3.02344,-1.70656c0.61813,-1.075 0.61813,-2.39187 0,-3.46687c-0.63156,-1.075 -1.78719,-1.72 -3.02344,-1.70656zM110.08,20.64c-1.85437,-0.01344 -3.38625,1.46469 -3.45344,3.31906c-0.06719,1.85437 1.35719,3.42656 3.21156,3.56094c0.08062,0 0.16125,0 0.24187,0h34.4v34.4c-0.02687,1.80063 1.35719,3.31906 3.15781,3.48031c0.1075,0 0.215,0.01344 0.33594,0.01344c1.89469,-0.04031 3.41313,-1.59906 3.38625,-3.49375v-41.28zM24.02625,110.02625c-1.89469,0.04031 -3.41312,1.59906 -3.38625,3.49375v41.28h41.28c0.12094,0 0.22844,0 0.33594,-0.01344c1.84094,-0.16125 3.225,-1.76031 3.13094,-3.60125c-0.09406,-1.84094 -1.62594,-3.27875 -3.46688,-3.26531h-34.4v-34.4c0.01344,-0.92719 -0.34937,-1.8275 -1.00781,-2.48594c-0.65844,-0.65844 -1.55875,-1.02125 -2.48594,-1.00781zM147.86625,110.02625c-1.89469,0.04031 -3.41312,1.59906 -3.38625,3.49375v34.4h-34.4c-1.23625,-0.01344 -2.39187,0.63156 -3.02344,1.70656c-0.61813,1.075 -0.61813,2.39187 0,3.46687c0.63156,1.075 1.78719,1.72 3.02344,1.70656h41.28v-41.28c0.01344,-0.92719 -0.34937,-1.8275 -1.00781,-2.48594c-0.65844,-0.65844 -1.55875,-1.02125 -2.48594,-1.00781z"></path></g></g></svg>
